<?xml version="1.0" encoding="UTF-8"?><svg id="Capa_1" xmlns="http://www.w3.org/2000/svg" viewBox="0 0 76.06 76.06"><defs><style>.cls-1{fill:#ff9300;}.cls-2{fill:#390000;}</style></defs><g><circle class="cls-1" cx="38.03" cy="38.03" r="38.03"/><circle class="cls-2" cx="38.03" cy="38.03" r="33.66"/></g><g><path class="cls-1" d="M28.11,45.71l-2.4,7.2c-.09,.26-.22,.35-.48,.35h-4.36c-.26,0-.35-.13-.31-.44l8.99-25.58c.17-.44,.31-.87,.39-2.36,0-.17,.09-.31,.26-.31h6.07c.22,0,.26,.04,.31,.26l10.08,28.02c.04,.26,0,.39-.26,.39h-4.89c-.22,0-.35-.09-.44-.26l-2.53-7.29h-10.43Zm9.04-4.76c-.92-2.88-2.97-8.95-3.84-12h-.04c-.7,2.92-2.44,8.03-3.75,12h7.64Z"/><path class="cls-1" d="M49.54,25.81c0-1.79,1.27-3.01,3.01-3.01,1.88,0,2.97,1.27,2.97,3.01s-1.18,3.01-3.01,3.01-2.97-1.22-2.97-3.01Zm.31,6.24c0-.22,.13-.31,.35-.31h4.63c.26,0,.35,.04,.35,.31v20.86c0,.26-.09,.35-.39,.35h-4.5c-.31,0-.44-.13-.44-.39v-20.82Z"/></g></svg>