<?xml version="1.0" encoding="UTF-8"?><svg id="Capa_1" xmlns="http://www.w3.org/2000/svg" xmlns:xlink="http://www.w3.org/1999/xlink" viewBox="0 0 253 253"><defs><style>.cls-1{fill:#f8f8f8;}.cls-2{fill:#fbdd00;}.cls-3{fill:url(#Degradado_sin_nombre_2-2);}.cls-4{fill:url(#Degradado_sin_nombre_3-2);}.cls-5{fill:url(#Degradado_sin_nombre_2);}.cls-6{fill:url(#Degradado_sin_nombre_3);}</style><linearGradient id="Degradado_sin_nombre_2" x1="35.97" y1="76.77" x2="112.03" y2="76.77" gradientTransform="translate(0 158.77) scale(1 -1)" gradientUnits="userSpaceOnUse"><stop offset="0" stop-color="#144eec"/><stop offset="1" stop-color="#0067f9"/></linearGradient><linearGradient id="Degradado_sin_nombre_2-2" x1="56.51" x2="91.49" xlink:href="#Degradado_sin_nombre_2"/><linearGradient id="Degradado_sin_nombre_3" x1="88.47" y1="-12.23" x2="164.53" y2="-12.23" gradientTransform="translate(0 158.77) scale(1 -1)" gradientUnits="userSpaceOnUse"><stop offset="0" stop-color="#f53d01"/><stop offset="1" stop-color="#ff5a00"/></linearGradient><linearGradient id="Degradado_sin_nombre_3-2" x1="109.01" y1="-12.23" x2="143.99" y2="-12.23" xlink:href="#Degradado_sin_nombre_3"/></defs><rect class="cls-1" x="0" y="0" width="253" height="253" rx="126.5" ry="126.5"/><g><g><g><circle class="cls-5" cx="74" cy="82" r="38.03"/><circle class="cls-1" cx="74" cy="82" r="33.66"/></g><path class="cls-3" d="M56.51,62.02h34.98l-3.18,35.91-14.34,4.06-14.26-4.06-3.18-35.91h-.02Zm28.46,7.35h-21.94l.35,4.36h16.86l-.42,4.53h-11.06l.4,4.28h10.3l-.61,5.87-4.85,1.34-4.92-1.35-.32-3.51h-4.34l.48,6.42,9.1,2.83,8.95-2.55,2.03-22.22h0Z"/><g><circle class="cls-2" cx="179" cy="82" r="38.03"/><circle class="cls-1" cx="179" cy="82" r="33.66"/></g><path class="cls-2" d="M161.51,64.51v34.98h34.98v-34.98h-34.98Zm19.03,27.27c0,3.4-2,4.96-4.91,4.96-2.63,0-4.15-1.36-4.93-3.01l2.68-1.62c.52,.91,.98,1.69,2.12,1.69s1.76-.42,1.76-2.07v-11.17h3.29v11.22h0Zm7.77,4.96c-3.05,0-5.03-1.45-5.99-3.36l2.68-1.55c.7,1.15,1.62,2,3.24,2,1.36,0,2.23-.68,2.23-1.62,0-1.12-.89-1.52-2.4-2.19l-.82-.35c-2.37-1.01-3.94-2.28-3.94-4.96,0-2.47,1.88-4.34,4.81-4.34,2.09,0,3.59,.73,4.67,2.63l-2.56,1.64c-.56-1.01-1.17-1.41-2.12-1.41s-1.57,.61-1.57,1.41c0,.98,.61,1.38,2.02,2l.82,.35c2.79,1.19,4.36,2.42,4.36,5.17,0,2.95-2.33,4.57-5.44,4.57h0Z"/></g><g><circle class="cls-6" cx="126.5" cy="171" r="38.03"/><circle class="cls-1" cx="126.5" cy="171" r="33.66"/></g><path class="cls-4" d="M109.01,150.73h34.98l-3.18,36.42-14.34,4.12-14.26-4.12-3.19-36.42h0Zm11.71,16.47l-.38-4.59h16.75l.38-4.42h-21.94l1.16,13.52h15.2l-.54,5.79-4.84,1.36-4.92-1.36-.31-3.56h-4.34l.55,7.04,9.03,2.45,8.96-2.44,1.24-13.78h-16Z"/></g></svg>