<?xml version="1.0" encoding="UTF-8"?><svg id="Capa_1" xmlns="http://www.w3.org/2000/svg" viewBox="0 0 76.06 76.06"><defs><style>.cls-1{fill:#00005f;}.cls-2{fill:#9898ff;}</style></defs><g><circle class="cls-2" cx="38.03" cy="38.03" r="38.03"/><circle class="cls-1" cx="38.03" cy="38.03" r="33.66"/></g><g><path class="cls-2" d="M26.19,42.93l-1.79,5.37c-.07,.2-.16,.26-.36,.26h-3.26c-.2,0-.26-.1-.23-.33l6.71-19.08c.13-.33,.23-.65,.29-1.76,0-.13,.07-.23,.2-.23h4.53c.16,0,.2,.03,.23,.2l7.52,20.9c.03,.2,0,.29-.2,.29h-3.65c-.16,0-.26-.07-.33-.2l-1.89-5.44h-7.78Zm6.74-3.55c-.68-2.15-2.21-6.67-2.86-8.95h-.03c-.52,2.18-1.82,5.99-2.8,8.95h5.7Z"/><path class="cls-2" d="M45.16,41.43c.1,2.28,1.6,4.1,4.92,4.1,1.46,0,2.8-.26,4.04-.78,.1-.06,.2-.03,.2,.13v2.7c0,.2-.07,.29-.2,.36-1.24,.59-2.67,.94-4.88,.94-5.92,0-8.04-4.17-8.04-8.17,0-4.52,2.73-8.53,7.65-8.53s6.67,3.78,6.67,6.87c0,.91-.03,1.66-.13,2.02-.03,.13-.1,.2-.26,.23-.46,.1-1.76,.13-3.35,.13h-6.61Zm4.85-2.8c1.24,0,1.66,0,1.79-.03v-.26c0-.94-.65-3.03-3.13-3.03-2.25,0-3.26,1.73-3.52,3.32h4.85Z"/></g></svg>