<?xml version="1.0" encoding="UTF-8"?><svg id="Capa_1" xmlns="http://www.w3.org/2000/svg" viewBox="0 0 31 31"><defs><style>.cls-1{fill:#ffce00;}.cls-2{fill:#213780;}</style></defs><path class="cls-1" d="M31,15.5c0,8.56-6.94,15.5-15.5,15.5S0,24.06,0,15.5,6.94,0,15.5,0s15.5,6.94,15.5,15.5"/><path class="cls-2" d="M30.74,15.5c0,8.42-6.83,15.25-15.25,15.25S.25,23.92,.25,15.5,7.08,.25,15.5,.25s15.25,6.83,15.25,15.25"/><path class="cls-1" d="M26.61,18.6l.07,.03c-.04,.11-.06,.2-.06,.25,0,.08,.04,.14,.12,.17l1.32,.51s.06,.02,.08,.02c.04,0,.08-.01,.1-.04,.05-.04,.09-.12,.14-.24l.07,.03-.49,1.27-.07-.03c.04-.11,.06-.18,.06-.23,0-.08-.04-.14-.12-.17l-1.32-.51s-.05-.02-.08-.02c-.05,0-.09,.02-.12,.06-.04,.04-.08,.11-.12,.22l-.07-.03,.49-1.27h0Z"/><path class="cls-1" d="M24.13,6.27c.19-.25,.28-.47,.28-.68,0-.2-.09-.36-.26-.49-.13-.1-.26-.15-.39-.15-.11,0-.22,.03-.33,.1-.13,.08-.26,.21-.4,.38-.14,.18-.23,.34-.26,.49-.07,.27,.01,.5,.25,.68,.13,.1,.26,.15,.39,.15,.11,0,.22-.03,.33-.1,.13-.08,.26-.21,.4-.39m.69-.43c.1,.32,.05,.6-.13,.84-.18,.24-.43,.36-.76,.36h-.02c-.32,0-.64-.13-.95-.36-.34-.25-.54-.54-.63-.86-.08-.3-.03-.57,.14-.79,.19-.25,.44-.37,.76-.37h.02c.32,0,.64,.12,.96,.37,.31,.23,.52,.51,.61,.82"/><path class="cls-1" d="M7.09,4.61l.43,.53-.08,.06c-.17-.06-.32-.09-.45-.09h-.04c-.23,0-.42,.07-.6,.21-.19,.16-.29,.34-.27,.54,.01,.2,.11,.42,.3,.65,.15,.19,.33,.32,.53,.41,.06,.02,.12,.04,.19,.04,.15,0,.31-.07,.48-.2,.13-.11,.2-.19,.21-.27,0-.04,0-.09-.04-.14l-.19-.24s-.09-.08-.14-.08c-.02,0-.04,0-.05,0-.05,.02-.13,.07-.24,.16l-.05-.06,1.04-.84,.05,.06c-.1,.08-.16,.16-.17,.22-.01,.06,.02,.12,.08,.2l.23,.29c-.04,.08-.12,.2-.25,.35-.12,.15-.28,.3-.46,.45-.34,.27-.67,.41-1,.41-.31,0-.56-.11-.74-.34-.19-.23-.24-.49-.17-.81,.07-.32,.26-.61,.58-.86,.13-.1,.26-.19,.42-.25,.15-.06,.24-.11,.27-.13,.04-.03,.05-.06,.06-.09s0-.07-.01-.12l.08-.07h0Z"/><path class="cls-1" d="M17.41,5.7v5.99h-.2c-.11,0-.08-.26-.08-.28-1.11,0-1.83-2.14-1.71-3.13-.05-.03-1.07-.58-1.03-1.19l.08-1.39h2.95Z"/><path class="cls-1" d="M6.72,10.7l5.71,1.85-.06,.19s-.04,.04-.08,.04c-.09,0-.2-.05-.21-.06-.21,.65-1.16,.91-2.07,.91-.56,0-1.1-.1-1.45-.26-.04,.03-.68,.65-1.24,.65-.08,0-.15-.01-.21-.04l-1.3-.5,.91-2.79h0Z"/><path class="cls-1" d="M24.5,11.49l.95,2.77-5.67,1.95-.07-.19c-.04-.11,.23-.16,.24-.17-.36-1.05,1.43-2.42,2.41-2.63,0-.06,.2-1.2,.79-1.36l1.34-.38h0Z"/><path class="cls-1" d="M25.82,20.66l.06,.04c-.09,.15-.13,.29-.12,.41,0,.12,.06,.42,.16,.87l1.08-.12c.14-.02,.23-.04,.28-.06,.04-.02,.09-.06,.14-.12l.06,.04-.74,1.1-.06-.04c.06-.1,.1-.16,.11-.2,.02-.05,.02-.09-.01-.11-.01,0-.03-.01-.06-.02h-.11l-.61,.06,.04,.21c.04,.18,.06,.3,.08,.36,.03,.11,.06,.17,.09,.19,.01,0,.03,.01,.04,.01,.04,0,.08-.02,.12-.07,.04-.04,.08-.08,.11-.14l.06,.04-.55,.81-.06-.04c.04-.09,.08-.15,.09-.2,.02-.07,.02-.15,0-.23l-.16-.93-1.13,.16c-.08,.01-.15,.03-.19,.05s-.08,.06-.12,.11l-.06-.04,.76-1.12,.06,.04c-.07,.11-.11,.18-.12,.22-.01,.04,0,.07,.03,.09l.05,.02h.07l.58-.07c-.07-.3-.11-.49-.13-.55-.02-.06-.04-.11-.07-.13-.01,0-.03-.01-.04-.01-.03,0-.06,.01-.09,.04-.03,.02-.07,.08-.12,.15l-.06-.04,.54-.81h0Z"/><path class="cls-1" d="M11.67,17.47l.16,.12c.09,.07-.09,.26-.1,.27,.9,.65,.22,2.8-.46,3.54,.03,.05,.53,1.1,.14,1.57l-.88,1.08-2.38-1.73,3.53-4.84h0Z"/><path class="cls-1" d="M16.44,19.56c.09,0,.19,.19,.19,.19,.16-.11,.36-.16,.57-.16,.95,0,2.24,1.03,2.63,1.76,0,0,.15-.02,.35-.02,.38,0,.97,.06,1.18,.4l.73,1.18-2.41,1.68-3.44-4.91,.16-.11s.02,0,.04,0"/><path class="cls-1" d="M16.93,16.07c.07-.17,.1-.35,.1-.54,0-.34-.11-.64-.29-.9-.09-.13-.21-.25-.34-.34-.26-.2-.59-.32-.94-.32-.2,0-.38,.04-.56,.11-.05,.02-.11,.04-.16,.07-.5,.26-.84,.78-.84,1.39,0,.05,0,.1,0,.14,.02,.18,.06,.35,.14,.51,.19,.43,.58,.75,1.05,.87,.12,.03,.25,.05,.38,.05,.62,0,1.14-.35,1.4-.86,.03-.05,.05-.11,.07-.16m1.94,2.47l1.93,.74,2.03,3.03-.42,.3-2.01-2.52-1.4-.19c-.04-.06-.83-1.12-1.69-2.07-.14-.15-.3-.19-.49-.19-.15,0-.32,.03-.48,.06-.16,.03-.32,.06-.47,.06s-.26-.03-.37-.11l-.97,.33-.96,1.66-.08,2.06-2.22,2.91-.42-.3,1.73-2.72-.27-1.38c.04-.06,.79-1.15,1.4-2.27,.37-.67-.84-1.35-.31-1.94l-.34-.4,.07-.1-2.2-.47-1.98,.57-3.45-1.21,.16-.49,3.12,.81,1.23-.68c.07,.02,1.34,.39,2.59,.64,.04,0,.08,0,.11,0,.3,0,.52-.24,.73-.47,.22-.24,.42-.48,.69-.48,.07,0,.14,.01,.22,.05l.27-.45,.08,.03,.09-.12-.23-2.17-1.15-1.71,.08-3.65h.52l.19,3.21,1.03,.95c0,.07,.04,1.39,.2,2.66,.09,.76,1.47,.6,1.39,1.39l.52,.12v.18l.17,.06,1.98-.91,1.24-1.64,3.48-1.11,.17,.49-2.98,1.23-.57,1.28c-.07,.03-1.3,.49-2.45,1.05-.69,.34-.08,1.58-.87,1.77l.06,.53-.1,.03,1.36,1.57h.02Z"/><path class="cls-1" d="M6.8,23.39c.04-.19,0-.38-.14-.54-.14-.16-.3-.24-.48-.24-.07,0-.14,.01-.22,.04-.15,.04-.3,.14-.47,.29-.17,.15-.3,.29-.37,.42-.13,.25-.1,.49,.09,.71,.14,.16,.3,.24,.48,.24,.07,0,.14-.01,.21-.04,.15-.04,.3-.14,.48-.29,.24-.2,.38-.4,.42-.6m.34,.34c.02,.33-.08,.6-.32,.79-.17,.14-.36,.21-.57,.21-.08,0-.17-.01-.26-.04-.31-.08-.6-.27-.85-.57-.26-.32-.41-.64-.42-.98,0-.31,.1-.56,.31-.74,.17-.15,.37-.22,.59-.22,.08,0,.16,0,.24,.03,.32,.07,.61,.26,.87,.57,.26,.3,.39,.61,.41,.93"/><path class="cls-1" d="M23.68,23.58l.37,.46-.08,.06c-.13-.1-.26-.15-.38-.15-.02,0-.04,0-.06,0-.14,.02-.33,.13-.57,.33-.09,.08-.15,.13-.16,.17-.01,.04,0,.07,.03,.11l.42,.53c.17-.14,.27-.26,.3-.35,.02-.1,0-.23-.08-.38l.08-.06,.62,.77-.08,.06c-.12-.11-.24-.17-.35-.17s-.26,.07-.43,.21l.45,.55s.07,.06,.11,.06h.02s.12-.06,.23-.14c.19-.16,.33-.31,.41-.47,.08-.15,.1-.35,.07-.58l.08-.07,.26,.57-1.77,1.43-.04-.06c.08-.07,.14-.13,.16-.18,.04-.07,.03-.14-.02-.2l-.89-1.1s-.08-.08-.14-.08c-.02,0-.04,0-.06,0-.04,.01-.11,.05-.2,.12l-.05-.06,1.75-1.41h0Z"/><path class="cls-1" d="M8.27,24.4l1.83,1.24-.33,.49-.08-.05c.06-.18,.07-.33,.01-.45-.05-.13-.21-.27-.46-.45-.09-.06-.16-.1-.2-.1-.04,0-.07,.02-.1,.07l-.38,.56c.15,.11,.27,.16,.37,.16h.04c.1-.01,.21-.08,.33-.18l.08,.05-.55,.82-.08-.06c.07-.15,.09-.27,.06-.38-.03-.11-.12-.22-.3-.33l-.38,.57c-.05,.08-.05,.14,0,.2,.04,.06,.13,.13,.25,.21l-.04,.06-1.16-.79,.04-.06c.09,.06,.17,.1,.22,.11h.04c.06,0,.11-.03,.15-.08l.79-1.17c.04-.07,.05-.14,0-.2-.03-.04-.08-.09-.18-.16l.04-.06h0Z"/><path class="cls-1" d="M21.26,25.47l.03,.07c-.12,.06-.19,.11-.23,.15s-.03,.12,.01,.23l.49,1.2c.04,.1,.09,.15,.15,.17h.04c.06,0,.13-.02,.23-.05l.03,.07-1.2,.49-.03-.07c.11-.04,.18-.09,.23-.14,.04-.04,.05-.11,.02-.19l-.53-1.32h-.03s-.24,1.96-.24,1.96l-.1,.04-1.53-1.21h-.02l.5,1.24c.04,.09,.08,.15,.15,.17,.02,0,.04,0,.07,0,.06,0,.15-.02,.26-.06l.03,.07-.84,.34-.03-.07c.14-.06,.22-.11,.25-.16,.03-.05,.02-.11,0-.19l-.52-1.29c-.03-.08-.07-.11-.13-.12h-.02c-.06,0-.14,.02-.25,.06l-.03-.07,.91-.37,1.22,.97h.03s.2-1.55,.2-1.55l.91-.37h0Z"/><path class="cls-1" d="M3.59,12.95v-.03l-.61-.45-.12,.75,.73-.26m-.83-.84l1.45,1.11-.02,.11-1.66,.62c-.19,.07-.3,.12-.37,.16-.06,.04-.09,.11-.11,.19h-.07s.2-1.26,.2-1.26h.08c-.02,.14-.02,.22-.01,.26,0,.04,.04,.07,.08,.08h.02s.05,0,.09-.01c.03,0,.07-.02,.11-.04l.19-.07,.14-.87c-.11-.08-.18-.12-.21-.15-.07-.04-.12-.07-.15-.08h-.01s-.07,.04-.1,.1c-.02,.04-.04,.11-.05,.19h-.08s.12-.79,.12-.79h.08c0,.1,0,.18,.06,.25,.03,.04,.11,.11,.22,.19"/><path class="cls-1" d="M3.9,15.39l.14,1.31h-.08c-.02-.14-.05-.24-.08-.29-.03-.04-.08-.06-.16-.06h-.06l-.98,.1c-.15,.02-.26,.05-.34,.11-.14,.1-.2,.27-.18,.51,.03,.3,.14,.49,.31,.58,.07,.04,.16,.05,.27,.05,.04,0,.08,0,.12,0l.89-.09c.11-.01,.17-.04,.21-.1s.05-.16,.04-.31h.08l.09,.84h-.08c-.03-.11-.06-.19-.09-.23-.02-.03-.07-.04-.13-.04h-.05l-.94,.1s-.08,0-.11,0c-.2,0-.36-.06-.49-.19-.15-.15-.24-.39-.28-.73-.05-.45,.02-.76,.2-.94,.1-.1,.23-.15,.4-.17l.98-.1c.11-.01,.18-.04,.2-.08,.03-.04,.04-.13,.04-.26h.08s0,0,0,0Z"/><path class="cls-1" d="M4.43,18.85l.92,2.16-.54,.23-.04-.11c.18-.11,.27-.27,.27-.46,0-.11-.04-.25-.11-.43l-1.42,.6c-.1,.04-.15,.09-.17,.15-.01,.06,.01,.16,.08,.31l-.07,.03-.54-1.28,.07-.03c.06,.14,.11,.23,.17,.26,.02,.01,.05,.02,.08,.02,.04,0,.09-.01,.15-.04l1.42-.6c-.08-.17-.15-.3-.23-.38-.1-.1-.22-.15-.35-.15-.05,0-.11,0-.17,.03l-.04-.11,.55-.23h0Z"/><path class="cls-1" d="M10.86,25.95l1.28,.47-.03,.07c-.11-.04-.2-.06-.25-.06-.08,0-.14,.04-.17,.12l-.49,1.33c-.03,.08-.02,.14,.03,.19,.05,.05,.13,.09,.24,.13l-.02,.07-1.28-.47,.03-.07c.11,.04,.18,.05,.23,.05,.08,0,.14-.04,.17-.12l.49-1.33c.03-.08,.02-.15-.04-.2-.04-.03-.11-.07-.22-.11l.02-.07h0Z"/><path class="cls-1" d="M12.91,26.7l.82,.09,1.21,1.37h.02l.09-.87c.01-.1,0-.17-.05-.22-.04-.05-.14-.08-.28-.11v-.08l.84,.09v.08c-.13,0-.22,.01-.26,.04-.04,.02-.07,.08-.08,.17l-.18,1.71h-.11s-1.55-1.75-1.55-1.75h-.03l-.12,1.14c0,.09,0,.15,.03,.19,.04,.07,.15,.11,.31,.13v.08s-.89-.09-.89-.09v-.08s.08,0,.11,0c.09,0,.15-.01,.18-.04,.04-.04,.07-.09,.08-.16l.15-1.38c-.11-.11-.17-.18-.2-.2-.03-.02-.07-.04-.11-.04v-.08h0Z"/><path class="cls-1" d="M27.04,15.34l.68,.07v.1c-.17,.08-.3,.16-.39,.25-.18,.17-.28,.36-.3,.59-.03,.26,.04,.45,.19,.58s.38,.2,.66,.23c.06,0,.12,0,.18,0,.13,0,.25-.02,.34-.05,.26-.09,.42-.3,.45-.63,.02-.2,0-.39-.07-.57-.04-.11-.1-.23-.19-.38l.08-.11c.11,.17,.19,.31,.23,.43,.08,.21,.11,.45,.08,.7-.04,.38-.16,.69-.36,.93-.19,.24-.43,.35-.71,.35-.04,0-.07,0-.1,0-.32-.04-.56-.2-.72-.49-.16-.27-.22-.6-.18-.97,.02-.16,.06-.32,.12-.48s.09-.25,.1-.27c0-.05,0-.09-.03-.12-.03-.03-.05-.05-.08-.07v-.11h0Z"/><path class="cls-1" d="M28.39,13.22c.23-.16,.32-.38,.26-.67-.06-.28-.23-.45-.51-.51-.06,0-.11-.02-.18-.02-.11,0-.24,.01-.38,.04-.3,.06-.52,.17-.65,.33-.13,.15-.17,.33-.13,.54,.06,.29,.23,.46,.51,.51,.05,0,.11,.01,.18,.01,.11,0,.23-.01,.38-.04,.22-.04,.4-.11,.52-.2m.35-.69c.09,.41,.06,.76-.09,1.06-.14,.28-.35,.45-.62,.51-.07,.01-.14,.02-.2,.02-.22,0-.43-.08-.62-.24-.25-.21-.42-.52-.5-.92-.08-.38-.06-.72,.08-1.02,.14-.3,.35-.49,.66-.55,.07-.01,.13-.02,.2-.02,.23,0,.43,.09,.62,.26,.24,.22,.4,.52,.49,.9"/><path class="cls-1" d="M10.63,3.87c.24-.08,.41-.17,.49-.25,.08-.08,.1-.21,.04-.39-.04-.11-.08-.19-.15-.23-.06-.05-.13-.07-.22-.07-.06,0-.14,.01-.21,.04-.1,.04-.16,.07-.19,.1-.02,.03-.03,.06-.01,.11l.24,.71m1.19,.66l-1.06-.6-.1,.03,.19,.54c.04,.1,.08,.15,.13,.17,.02,0,.04,0,.06,0,.05,0,.13-.01,.22-.04l.02,.07-1.25,.43-.02-.07c.12-.04,.2-.09,.24-.14,.04-.04,.04-.12,0-.23l-.42-1.22c-.04-.11-.09-.17-.15-.18h-.04s-.12,.01-.23,.04l-.02-.07,1.19-.41c.25-.08,.45-.13,.62-.15h.1c.26,0,.43,.09,.49,.27,.05,.15,.02,.3-.1,.43-.09,.11-.19,.19-.31,.25l1.02,.53s.05,.02,.08,.02,.06,0,.09-.02l.02,.07-.76,.26h0Z"/><path class="cls-1" d="M15.93,2.04h.86v.08c-.12,.02-.21,.04-.25,.07s-.06,.08-.06,.18v.94c0,.25-.08,.44-.24,.57-.16,.14-.41,.2-.76,.2-.45,0-.76-.1-.92-.3-.09-.11-.13-.25-.13-.42v-.98c0-.11-.02-.18-.06-.21-.04-.03-.13-.05-.26-.06v-.08h1.32v.08c-.15,0-.25,.02-.3,.05-.05,.03-.08,.11-.08,.22v.98c0,.15,.02,.26,.07,.34,.08,.15,.25,.23,.49,.23,.3,0,.5-.08,.6-.25,.06-.09,.09-.22,.09-.38v-.9c0-.11-.03-.18-.08-.22-.05-.04-.15-.07-.3-.07v-.08h0Z"/><path class="cls-1" d="M20.31,3.5c.04-.12,.05-.24,.02-.34-.03-.1-.12-.17-.28-.23-.07-.02-.12-.04-.15-.04h0s-.06,.02-.07,.06l-.26,.74c.19,.06,.34,.1,.42,.1h.04c.14-.02,.24-.11,.3-.3m.53-.27c.14,.13,.17,.3,.11,.48-.03,.09-.09,.17-.19,.23-.09,.06-.21,.08-.37,.08h-.02c-.12,0-.24-.02-.36-.05-.11-.03-.28-.08-.5-.16l-.18,.52c-.04,.1-.04,.18,0,.23,.04,.05,.11,.09,.24,.14l-.02,.07-1.23-.42,.02-.07c.08,.02,.15,.04,.2,.04,.03,0,.05,0,.07,0,.05-.02,.1-.08,.13-.17l.42-1.22c.04-.11,.04-.18,0-.22-.03-.04-.11-.09-.23-.14l.02-.07,1.19,.41c.31,.11,.54,.23,.68,.36"/></svg>