<?xml version="1.0" encoding="UTF-8"?><svg id="Capa_1" xmlns="http://www.w3.org/2000/svg" viewBox="0 0 76.06 76.06"><defs><style>.cls-1{fill:#f8f8f8;}.cls-2{fill:#9600ff;}</style></defs><g><circle class="cls-2" cx="38.03" cy="38.03" r="38.03"/><circle class="cls-1" cx="38.03" cy="38.03" r="33.66"/></g><path class="cls-2" d="M40.86,34.64c0-1.38-.97-2.13-2.68-2.13h-3.14v4.43h2.64c2.04,0,3.17-.83,3.17-2.3Zm11.42-.8c-.59-1.92-.68-4.28-.61-6.1,.07-1.9-1.41-3.64-3.4-3.64H27.81c-2,0-3.47,1.75-3.4,3.64,.06,1.82-.02,4.18-.61,6.1-.6,1.93-1.6,3.15-3.25,3.3v1.77c1.64,.16,2.65,1.38,3.25,3.3,.59,1.92,.68,4.28,.61,6.1-.07,1.9,1.41,3.64,3.4,3.64h20.45c2,0,3.47-1.75,3.4-3.64-.06-1.82,.02-4.18,.61-6.1,.6-1.93,1.6-3.15,3.24-3.3v-1.77c-1.64-.16-2.64-1.38-3.24-3.3Zm-13.49,11.6h-6.09v-14.83h6.06c2.69,0,4.46,1.46,4.46,3.7,0,1.57-1.19,2.98-2.71,3.22v.08c2.07,.22,3.45,1.66,3.45,3.63,0,2.62-1.95,4.2-5.18,4.2Zm-.62-6.76h-3.12v4.88h3.25c2.13,0,3.25-.85,3.25-2.46,0-1.6-1.16-2.42-3.39-2.42Z"/></svg>