<?xml version="1.0" encoding="UTF-8"?><svg id="Capa_1" xmlns="http://www.w3.org/2000/svg" viewBox="0 0 32 32"><defs><style>.cls-1{fill:#202529;}.cls-2{fill:#4c7cc6;}</style></defs><g><rect class="cls-1" x=".5" y=".5" width="31" height="31"/><path class="cls-2" d="M32,32H0V0H32V32ZM1,31H31V1H1V31Z"/></g><g><g><path class="cls-2" d="M5.99,19.13c-.36,0-.4,.37-.39,1.75s.06,1.74,.42,1.74c.3,0,.33-.29,.32-1.25h1.2s0,.31,0,.31c.01,1.42-.72,1.83-1.49,1.84-1.35,.01-1.64-.73-1.66-2.62s.37-2.64,1.62-2.65c1.09-.01,1.5,.61,1.51,1.59v.32s-1.2,.01-1.2,.01v-.28c0-.58-.1-.75-.33-.75Z"/><path class="cls-2" d="M8.62,20.23v.03s1.43-.01,1.43-.01v1.04s-.92,0-.92,0v.8s-.49,.19-.49,.19v.03s1.57-.02,1.57-.02v1.08s-2.27,.02-2.27,.02l-.05-5.07,2.28-.02v1.08s-1.06,.01-1.06,.01v.65s-.49,.19-.49,.19Z"/><path class="cls-2" d="M12.24,18.28l.5,2.18h.01s.47-2.19,.47-2.19l1.66-.02,.05,5.07h-1.07s-.03-2.87-.03-2.87h-.01s-.62,2.89-.62,2.89h-.87s-.66-2.87-.66-2.87h-.01s.03,2.88,.03,2.88h-1.08s-.05-5.06-.05-5.06l1.68-.02Z"/><path class="cls-2" d="M18.9,23.28h-1.2s-.13-.87-.13-.87h-.96s-.11,.9-.11,.9h-1.2s1.01-5.07,1.01-5.07l1.51-.02,1.09,5.06Zm-1.48-1.91l-.35-2.11h-.01s-.28,1.88-.28,1.88l-.54,.21v.03s1.17-.01,1.17-.01Z"/><path class="cls-2" d="M18.27,18.22h1.2s.47,1.75,.47,1.75h.01s.44-1.77,.44-1.77h1.2s-1.04,3.08-1.04,3.08l.02,2h-1.2s-.02-1.98-.02-1.98l-1.08-3.07Z"/><path class="cls-2" d="M22.68,20.09v.03s1.43-.01,1.43-.01v1.04s-.92,0-.92,0v.8s-.49,.19-.49,.19v.03s1.57-.02,1.57-.02v1.08s-2.27,.02-2.27,.02l-.05-5.07,2.28-.02v1.08s-1.06,.01-1.06,.01v.65s-.49,.19-.49,.19Z"/><path class="cls-2" d="M25.7,18.14l.79,2.18h.01s-.02-2.19-.02-2.19h1.08s.05,5.06,.05,5.06h-1.08s-.79-2.18-.79-2.18h-.02s.02,2.2,.02,2.2h-1.08s-.05-5.06-.05-5.06h1.08Z"/></g><path class="cls-2" d="M15.16,10.18c.51-.37,1.08-.4,1.73-.04,.28,.15,.57,.2,.8-.02,1.03-.99,2.1-1.57,3.53-1.49,.99,.05,1.85,.3,2.59,.78,.33,.21,.66,.37,1,.51,.21,.09,.37,.26,.43,.48,.05,.18,.07,.37,.08,.57,0,.17-.1,.32-.26,.36,0,0,0,0,0,0-.24,.04-.4,.46-.53,1.1-.21,1.05-.67,1.91-1.51,2.42-.99,.61-2.08,.72-3.13,.29-1.52-.63-2.36-2-2.61-2.61-.31-.75-.37-1.28-1.23-1.28-.63,0-.92,.09-1.06,.66-.34,1.38-.95,2.42-2.25,3.04-1.56,.74-2.85,.52-4.15-.4-.72-.51-1.2-1.41-1.44-2.7-.07-.34-.25-.57-.5-.71-.11-.06-.17-.17-.17-.29,0-.55,.05-1.01,.39-1.01,.29-.05,.59-.17,.9-.35,1.59-1.09,3.2-1.25,4.95-.72,.54,.16,1.19,.63,1.89,1.31,.18,.18,.37,.21,.56,.09h0Zm-4.21-1.16c-1.73,.02-3.13,1.34-3.11,2.96s1.44,2.92,3.17,2.9,3.13-1.34,3.11-2.96-1.44-2.92-3.17-2.9h0Zm10.14,.02c-1.73,.02-3.13,1.34-3.11,2.96s1.44,2.92,3.17,2.9c1.73-.02,3.13-1.34,3.11-2.96s-1.44-2.92-3.17-2.9h0Z"/></g></svg>