<?xml version="1.0" encoding="UTF-8"?><svg id="Capa_1" xmlns="http://www.w3.org/2000/svg" viewBox="0 0 79 79"><defs><style>.cls-1{fill:#577bc1;}</style></defs><g id="qLlSHF.tif"><g><path class="cls-1" d="M19.71,20.89c.13-4.18-.3-8.2,.2-12.18C20.55,3.58,24.61,.07,29.75,.03,37.67-.02,45.59,.03,53.51,0c.76,0,.8,.3,.8,.9-.02,6.07-.01,12.13,0,18.2,0,3.79,1.82,5.6,5.62,5.6,6,0,12,.02,18-.02,.8,0,1.09,.11,1.09,1.02-.03,14.29-.02,28.59-.03,42.88,0,6.13-4.28,10.41-10.41,10.41-11.14,0-22.28,0-33.42,0h-.89c.58-4.64,.17-9.25,.28-13.85,.02-.63,.13-.91,.8-1.26,2.5-1.32,4.24-3.34,4.72-6.23,.15-.91,.48-1.59,1.22-2.22,3.17-2.71,3.91-6.12,2.37-10.42-.16-.44-.2-.8-.02-1.25,1.69-4.22,.66-8.02-2.93-10.75-.54-.41-.5-.95-.58-1.45-.35-2.22-1.33-4.09-3.06-5.53-1.29-1.08-2.77-1.78-4.45-1.93-.71-.07-1.21-.35-1.67-.86-1.06-1.18-2.19-2.26-3.7-2.86-2.51-.98-4.95-.71-7.53,.5Z"/><path class="cls-1" d="M59.23,.36c6.48,6.48,12.94,12.94,19.45,19.45-.04,.06-.27-.06-.45-.06-6.02,0-12.05,0-18.07,.02-.65,0-.95-.07-.95-.85,.04-6.02,.02-12.05,.03-18.07,0-.19-.1-.41,0-.49Z"/><path class="cls-1" d="M39.17,47.11c-1.01-1.88-1.05-3.59-.06-5.41,.06-.12,.1-.25,.14-.38,.54-1.7,.19-3.24-1.29-4.18-1.92-1.22-2.76-2.82-2.84-5.06-.06-1.59-1.24-2.92-2.8-2.94-2.55-.04-4.15-1.24-5.54-3.2-.85-1.21-2.32-1.64-3.69-.99-2.26,1.07-4.36,1.11-6.63,.01-1.4-.68-2.95-.07-3.94,1.15-.34,.42-.68,.86-.95,1.34-.55,.96-1.36,1.39-2.45,1.4-.37,0-.75,.09-1.12,.14-2.49,.35-3.46,1.32-3.71,3.85-.15,1.59-.5,2.9-2.05,3.84-2.32,1.41-2.74,2.89-1.67,5.41,.71,1.66,.82,3.19-.04,4.78-.06,.12-.1,.25-.14,.38-.73,2.1-.33,3.62,1.54,4.8,1.5,.94,2.37,2.09,2.32,3.88,0,.2,.03,.41,.06,.61,.21,1.72,1.15,2.82,2.83,3.23,.63,.15,1.28,.28,1.92,.29,.69,.02,.84,.31,.83,.95-.03,2.54-.01,5.07-.01,7.61,0,2.43,.03,4.87-.01,7.3-.02,1.2,.3,2.16,1.4,2.75,1.09,.59,2.04,.17,2.97-.45,1.62-1.09,3.26-2.14,4.86-3.26,.51-.35,.86-.34,1.35,0,1.63,1.13,3.3,2.21,4.94,3.32,.94,.63,1.93,.95,2.99,.38,1.01-.55,1.27-1.5,1.26-2.62-.03-4.49-.01-8.98-.01-13.47q0-2.37,2.32-2.7c1.56-.22,2.88-.99,3.06-2.58,.29-2.54,1.35-4.42,3.38-5.98,1.36-1.04,1.57-2.77,.79-4.21Zm-19.41,7.21c-5.26,.01-9.84-4.53-9.89-9.81-.05-5.33,4.51-9.92,9.86-9.93,5.36,0,9.87,4.52,9.87,9.91,0,5.29-4.54,9.82-9.84,9.83Z"/></g></g></svg>