<?xml version="1.0" encoding="UTF-8"?><svg id="Capa_1" xmlns="http://www.w3.org/2000/svg" xmlns:xlink="http://www.w3.org/1999/xlink" viewBox="0 0 76.06 76.06"><defs><style>.cls-1{fill:#fc2b25;}.cls-2{fill:#f8f8f8;}.cls-3{fill:#00a946;}.cls-4{fill:#ffb700;}.cls-5{fill:#fdfdfd;}.cls-6{fill:#2185fa;}.cls-7{fill:url(#Degradado_sin_nombre_19);}</style><linearGradient id="Degradado_sin_nombre_19" x1="0" y1="38.03" x2="76.06" y2="38.03" gradientUnits="userSpaceOnUse"><stop offset="0" stop-color="#ffb700"/><stop offset=".33" stop-color="#00a946"/><stop offset=".66" stop-color="#2185fa"/><stop offset="1" stop-color="#fc2b25"/></linearGradient></defs><g><circle class="cls-7" cx="38.03" cy="38.03" r="38.03"/><circle class="cls-2" cx="38.03" cy="38.03" r="33.66"/></g><g id="uv3TVt"><g><path class="cls-6" d="M47.08,27.44c1.78,1.43,2.97,3.28,3.74,5.41,.26,.73,.64,1.31,1.23,1.84,3.22,2.86,4.3,7.15,2.82,10.96-1.54,3.97-5.14,6.43-9.48,6.45-2.46,0-4.93-.03-7.39-.04-.83-1.87-.44-3.79-.26-5.71,.36-.67,1.02-.6,1.62-.61,1.65-.03,3.31-.01,4.96-.01,.86,0,1.71-.08,2.5-.43,1.32-.58,2.11-1.59,2.15-3.06,.03-1.41-.58-2.58-1.9-3.04-1.34-.47-1.82-1.28-1.92-2.59-.13-1.89-1.41-3.25-2.4-4.73-.06-.67,.45-1.03,.85-1.38,1.17-1.01,1.95-2.45,3.47-3.05Z"/><path class="cls-4" d="M24.53,50.05c-4.94-3.6-5.36-10.81-.88-14.98,.41-.39,.83-.77,1.24-1.16,1.28-1.38,2.96-1.77,4.74-1.85,.89-.04,1.79-.07,2.68,.08,1.89,.52,3.66,1.28,5.11,2.66,1.14,1.08,1.18,1.6,.12,2.71-.79,.82-1.61,1.61-2.41,2.41-.74,.74-1.36,.78-2.17,.01-1.49-1.41-3.08-1.53-4.5-.51-1.75,1.25-1.98,3.46-.54,5.08,.34,.39,.83,.64,1.02,1.16-1.13,1.8-2.58,3.28-4.41,4.38Z"/><path class="cls-1" d="M32.44,32.46c-2.66-.28-5.2,.09-7.55,1.44,.94-4.59,5.5-8.85,10.43-9.73,4.43-.79,8.36,.26,11.75,3.26-1.42,1.4-2.84,2.81-4.26,4.21-.51,.14-.93-.13-1.34-.34-2.87-1.46-5.58-1.12-8.14,.75-.27,.2-.54,.39-.89,.4Z"/><path class="cls-3" d="M24.53,50.05c1.44-1.44,2.87-2.88,4.31-4.32,.57-.38,1.18-.17,1.78-.12,1.83,.13,3.66,.02,5.49,.07,.65,.02,1.33-.08,1.87,.42,0,1.99,0,3.97,0,5.96-3.12-.01-6.26,.28-9.37-.18-1.52-.23-2.9-.83-4.09-1.82Z"/><path class="cls-5" d="M37.99,46.1c-2.07-.02-4.14-.07-6.21-.06-.99,0-1.97-.06-2.94-.31-1.95-1.31-2.65-2.88-2.06-4.63,.61-1.8,2.18-2.83,4.05-2.66,1.05,.1,1.93,.57,2.53,1.4,.45,.64,.74,.67,1.26,.1,1-1.07,2.03-2.13,3.12-3.11,.56-.51,.38-.79-.01-1.24-1.42-1.63-3.31-2.45-5.29-3.14,2.92-2.97,6.23-3.23,10.37-.81,1.75,1.61,2.8,3.55,2.82,5.97,0,.49,.13,.69,.67,.84,2.28,.64,3.31,2.14,3.08,4.25-.21,1.9-1.89,3.27-4.15,3.32-2.41,.05-4.83,.05-7.25,.07Z"/></g></g></svg>