<?xml version="1.0" encoding="UTF-8"?><svg id="Capa_1" xmlns="http://www.w3.org/2000/svg" viewBox="0 0 76.06 76.06"><defs><style>.cls-1{fill:#00fd00;}.cls-2{fill:#002700;}</style></defs><g><circle class="cls-1" cx="38.03" cy="38.03" r="38.03"/><circle class="cls-2" cx="38.03" cy="38.03" r="33.66"/></g><g><path class="cls-1" d="M20.54,29.66c0-.13,.03-.18,.18-.21,.76-.03,2.54-.08,4.95-.08,6.16,0,9.25,3.49,9.25,8.36,0,6.39-4.87,8.96-9.3,8.96-1.65,0-4.06,0-4.9-.05-.1,0-.18-.08-.18-.24V29.66Zm3.17,14.26c.52,.03,1.1,.03,1.78,.03,3.69,0,6.18-2.15,6.18-6.13s-2.49-5.69-6.03-5.69c-.73,0-1.31,.03-1.94,.05v11.74Z"/><path class="cls-1" d="M48.58,46.64c-.18,0-.24-.08-.29-.24-1.52-5.84-1.97-8.18-2.23-9.46h-.03c-.6,2.62-1.26,5.14-2.49,9.49-.05,.16-.13,.21-.29,.21h-2.86c-.26,0-.29-.05-.34-.21l-3.41-12.5c-.05-.13,.03-.21,.18-.21h2.88c.13,0,.18,.03,.21,.16,1.57,6.16,1.97,8.65,2.15,9.7h.05c.21-.92,.66-3.3,2.38-9.64,.03-.16,.05-.21,.24-.21h3.01c.13,0,.18,.05,.21,.16,1.62,6.39,1.99,8.73,2.2,9.77h.05c.31-1.57,.71-4.19,2.23-9.77,.03-.1,.1-.16,.24-.16h2.65c.1,0,.21,.05,.16,.18l-3.75,12.53c-.08,.16-.1,.21-.29,.21h-2.88Z"/></g></svg>