<?xml version="1.0" encoding="UTF-8"?><svg id="Capa_1" xmlns="http://www.w3.org/2000/svg" xmlns:xlink="http://www.w3.org/1999/xlink" viewBox="0 0 76.06 76.06"><defs><style>.cls-1{fill:#00d27c;}.cls-2{fill:#00beff;}.cls-3{fill:#ff3a00;}.cls-4{fill:#ff665a;}.cls-5{fill:#ac54ff;}.cls-6{fill:url(#Degradado_sin_nombre_32);}</style><linearGradient id="Degradado_sin_nombre_32" x1="0" y1="38.03" x2="76.06" y2="38.03" gradientUnits="userSpaceOnUse"><stop offset="0" stop-color="#ff3a00"/><stop offset=".25" stop-color="#ac54ff"/><stop offset=".5" stop-color="#00d27c"/><stop offset=".75" stop-color="#ff665a"/><stop offset="1" stop-color="#00beff"/></linearGradient></defs><g><circle class="cls-6" cx="38.03" cy="38.03" r="38.03"/><circle cx="38.03" cy="38.03" r="33.66"/></g><g><path class="cls-3" d="M38.03,31.04h-6.99c-3.86,0-6.99-3.13-6.99-6.99h0c0-3.86,3.13-6.99,6.99-6.99h6.99s0,13.99,0,13.99Z"/><path class="cls-4" d="M45.02,31.04h-6.99s0-13.99,0-13.99h6.99c3.86,0,6.99,3.13,6.99,6.99h0c0,3.86-3.13,6.99-6.99,6.99Z"/><rect class="cls-2" x="38.03" y="31.04" width="13.99" height="13.99" rx="6.99" ry="6.99"/><path class="cls-5" d="M38.03,45.02h-6.99c-3.86,0-6.99-3.13-6.99-6.99h0c0-3.86,3.13-6.99,6.99-6.99h6.99s0,13.99,0,13.99Z"/><path class="cls-1" d="M31.04,59.01h0c-3.86,0-6.99-3.13-6.99-6.99h0c0-3.86,3.13-6.99,6.99-6.99h6.99s0,6.99,0,6.99c0,3.86-3.13,6.99-6.99,6.99Z"/></g></svg>