<?xml version="1.0" encoding="UTF-8"?><svg id="Capa_1" xmlns="http://www.w3.org/2000/svg" viewBox="0 0 306 306"><defs><style>.cls-1{fill:#00ade6;}.cls-2{fill:#0073c1;}.cls-3{fill:#007bb6;}.cls-4{fill:#fff;}.cls-5{fill:#ff0;}.cls-6{fill:#f1f1f1;}.cls-7{fill:#e4e8ec;}.cls-8{fill:#333;}.cls-9{fill:#b2b2b2;}.cls-10{fill:#4c7cc6;}.cls-11{fill:#5196ce;}.cls-12{fill:#4d4d4d;}</style></defs><g><path class="cls-10" d="M153,306c-40.87,0-79.29-15.91-108.19-44.81C15.91,232.29,0,193.87,0,153S15.91,73.71,44.81,44.81C73.71,15.91,112.13,0,153,0s79.29,15.91,108.19,44.81c28.9,28.9,44.81,67.32,44.81,108.19s-15.91,79.29-44.81,108.19c-28.9,28.9-67.32,44.81-108.19,44.81Zm0-294.77c-37.87,0-73.47,14.75-100.25,41.52C25.98,79.53,11.23,115.13,11.23,153s14.75,73.47,41.52,100.25c26.78,26.78,62.38,41.52,100.25,41.52s73.47-14.75,100.25-41.52c26.78-26.78,41.52-62.38,41.52-100.25s-14.75-73.47-41.52-100.25c-26.78-26.78-62.38-41.52-100.25-41.52Z"/><path class="cls-7" d="M153,303.43c-40.18,0-77.96-15.65-106.37-44.06C18.22,230.96,2.57,193.18,2.57,153S18.22,75.04,46.63,46.63C75.04,18.22,112.82,2.57,153,2.57s77.96,15.65,106.37,44.06c28.41,28.41,44.06,66.19,44.06,106.37s-15.65,77.96-44.06,106.37c-28.41,28.41-66.19,44.06-106.37,44.06Zm0-294.77c-38.56,0-74.8,15.01-102.07,42.28C23.67,78.2,8.66,114.44,8.66,153s15.01,74.8,42.28,102.07c27.26,27.26,63.51,42.28,102.07,42.28s74.8-15.01,102.07-42.28c27.26-27.26,42.28-63.51,42.28-102.07s-15.01-74.8-42.28-102.07c-27.26-27.26-63.51-42.28-102.07-42.28Z"/><circle class="cls-10" cx="153" cy="153" r="147.39"/></g><g><g><g><g><path class="cls-8" d="M217.84,198.2h36.86c2.26,0,4.09-1.83,4.09-4.09v-49.64c0-2.26-1.83-4.09-4.09-4.09h-36.86v5.11h36.18v47.61h-36.18v5.14"/><path class="cls-8" d="M254.7,198.9h-36.86v-.69l-.71,.02v-5.85h36.18v-46.2h-36.18v-6.52h37.57c2.65,0,4.8,2.15,4.8,4.8v49.64c0,2.65-2.15,4.8-4.8,4.8Zm-36.16-1.42h36.16c1.87,0,3.38-1.52,3.38-3.38v-49.64c0-1.87-1.52-3.38-3.38-3.38h-36.16v3.69h36.18v49.03h-36.18v3.69Z"/></g><g><path class="cls-8" d="M233.29,210.42h2.63c.64,0,1.17,.53,1.17,1.17v1.56c0,.64-.53,1.17-1.17,1.17h-18.09v-3.9h15.46Z"/><path class="cls-8" d="M235.92,215.03h-18.8v-5.32h18.8c1.04,0,1.88,.84,1.88,1.88v1.56c0,1.04-.84,1.88-1.88,1.88Zm-17.38-1.42h17.38c.25,0,.46-.21,.46-.46v-1.56c0-.25-.21-.46-.46-.46h-17.38v2.49Z"/></g><g><rect class="cls-6" x="217.85" y="145.49" width="36.18" height="47.59"/><path class="cls-6" d="M254.73,193.78h-37.59v-49h37.59v49Zm-36.18-1.42h34.76v-46.17h-34.76v46.17Z"/></g></g><rect class="cls-2" x="217.8" y="148.17" width="28.08" height="3.8"/><rect class="cls-4" x="219.8" y="149.78" width="5.07" height=".68"/><rect class="cls-4" x="225.75" y="149.78" width="5.07" height=".68"/><rect class="cls-4" x="231.7" y="149.78" width="5.07" height=".68"/><rect class="cls-4" x="237.64" y="149.78" width="5.07" height=".68"/><rect class="cls-2" x="217.7" y="156.17" width="28.18" height="16.77"/><circle class="cls-5" cx="242.81" cy="159.63" r="1.56"/><path class="cls-1" d="M217.64,163.19s3.23-2.68,10.64,0c7.41,2.68,17.6,0,17.6,0v9.75h-28.18l-.06-9.75Z"/><g><g><rect class="cls-2" x="220.33" y="187.5" width="9.46" height=".35"/><rect class="cls-2" x="220.33" y="188.18" width="9.46" height=".35"/><rect class="cls-2" x="220.33" y="188.87" width="9.46" height=".35"/><rect class="cls-2" x="220.33" y="189.55" width="9.46" height=".35"/><rect class="cls-2" x="233.27" y="187.56" width="9.46" height=".35"/><rect class="cls-2" x="233.27" y="188.24" width="9.46" height=".35"/><rect class="cls-2" x="233.27" y="188.92" width="9.46" height=".35"/><rect class="cls-2" x="233.27" y="189.6" width="9.46" height=".35"/></g><g><g><rect class="cls-2" x="233.3" y="176.32" width="9.46" height="9.46"/><circle class="cls-5" cx="241.3" cy="178.01" r="1.02"/><path class="cls-1" d="M233.29,181.44s2.71-.71,5.09,0c2.38,.71,4.37-.1,4.37-.1v4.48h-9.46v-4.38Z"/></g><g><rect class="cls-2" x="220.33" y="176.32" width="9.46" height="9.46"/><path class="cls-1" d="M220.33,181.4s2.71-.71,5.09,0c2.38,.71,4.37-.1,4.37-.1v4.48h-9.46v-4.38Z"/><circle class="cls-5" cx="228.43" cy="178.01" r="1.02"/></g></g></g><g><g><path class="cls-8" d="M217.77,198.2h-36.86c-2.26,0-4.09-1.83-4.09-4.09v-49.64c0-2.26,1.83-4.09,4.09-4.09h36.86v5.11h-36.18s0,47.61,0,47.61h36.18v5.11s0,.03,0,.03"/><path class="cls-8" d="M217.77,198.9h-36.86c-2.65,0-4.8-2.15-4.8-4.8v-49.64c0-2.65,2.15-4.8,4.8-4.8h37.57v6.52h-36.18v46.2h36.18v5.82l-.71,.02v.69Zm-36.86-57.83c-1.87,0-3.38,1.52-3.38,3.38v49.64c0,1.87,1.52,3.38,3.38,3.38h36.16v-3.69h-36.18v-49.03h36.18v-3.69h-36.16Z"/></g><g><polyline class="cls-6" points="202.32 210.42 202.32 198.23 233.26 198.23 233.26 210.42 202.32 210.42"/><path class="cls-8" d="M233.97,211.12h-32.36v-13.6h32.36v13.6Zm-30.94-1.42h29.53v-10.77h-29.53v10.77Z"/></g><g><path class="cls-8" d="M202.32,210.42h-2.63c-.64,0-1.17,.53-1.17,1.17v1.56c0,.64,.53,1.17,1.17,1.17h18.09s0-3.9,0-3.9h-15.46Z"/><path class="cls-8" d="M218.48,215.03h-18.8c-1.04,0-1.88-.84-1.88-1.88v-1.56c0-1.04,.84-1.88,1.88-1.88h18.8v5.32Zm-18.8-3.9c-.25,0-.46,.21-.46,.46v1.56c0,.25,.21,.46,.46,.46h17.38v-2.49h-17.38Z"/></g><g><rect class="cls-6" x="181.58" y="145.49" width="36.18" height="47.59" transform="translate(399.34 338.57) rotate(-180)"/><path class="cls-6" d="M218.47,193.78h-37.59v-49h37.59v49Zm-36.18-1.42h34.76v-46.17h-34.76v46.17Z"/></g></g><rect class="cls-2" x="189.63" y="148.17" width="29.05" height="3.8" transform="translate(408.3 300.14) rotate(-180)"/><rect class="cls-4" x="210.64" y="149.78" width="5.07" height=".68" transform="translate(426.35 300.24) rotate(-180)"/><rect class="cls-4" x="204.69" y="149.78" width="5.07" height=".68" transform="translate(414.46 300.24) rotate(-180)"/><rect class="cls-4" x="198.74" y="149.78" width="5.07" height=".68" transform="translate(402.56 300.24) rotate(-180)"/><rect class="cls-4" x="192.8" y="149.78" width="5.07" height=".68" transform="translate(390.66 300.24) rotate(-180)"/><rect class="cls-2" x="189.63" y="156.17" width="29.18" height="16.77" transform="translate(408.44 329.11) rotate(-180)"/><path class="cls-1" d="M219.16,162.44c-6.28-1.22-10.95-.73-14.15,0-2.72,.62-5.02,1.56-8.85,1.42,0,0-1.27-.05-6.54-.67h0v9.75h29.25c.09-3.5,.19-7,.28-10.5Z"/><g><g><rect class="cls-2" x="205.43" y="187.5" width="9.46" height=".35"/><rect class="cls-2" x="205.43" y="188.18" width="9.46" height=".35"/><rect class="cls-2" x="205.43" y="188.87" width="9.46" height=".35"/><rect class="cls-2" x="205.43" y="189.55" width="9.46" height=".35"/><rect class="cls-2" x="192.49" y="187.56" width="9.46" height=".35"/><rect class="cls-2" x="192.49" y="188.24" width="9.46" height=".35"/><rect class="cls-2" x="192.49" y="188.92" width="9.46" height=".35"/><rect class="cls-2" x="192.49" y="189.6" width="9.46" height=".35"/></g><g><g><rect class="cls-2" x="192.46" y="176.32" width="9.46" height="9.46" transform="translate(394.38 362.09) rotate(-180)"/><circle class="cls-5" cx="193.92" cy="178.01" r="1.02"/><path class="cls-1" d="M201.93,181.44s-2.71-.71-5.09,0c-2.38,.71-4.37-.1-4.37-.1v4.48h9.46s0-4.38,0-4.38Z"/></g><g><rect class="cls-2" x="205.43" y="176.32" width="9.46" height="9.46" transform="translate(420.31 362.09) rotate(-180)"/><path class="cls-1" d="M214.89,181.4s-2.71-.71-5.09,0c-2.38,.71-4.37-.1-4.37-.1v4.48h9.46s0-4.38,0-4.38Z"/><circle class="cls-5" cx="206.79" cy="178.01" r="1.02"/></g></g></g></g><g><rect class="cls-9" x="46.5" y="89.23" width="84.62" height="127.54"/><g><g><rect x="51.76" y="95.13" width="74.11" height="17.02"/><rect class="cls-12" x="55.91" y="98.21" width="5.87" height="10.87"/><rect class="cls-12" x="63.49" y="98.24" width="5.87" height="10.87"/><rect class="cls-12" x="71.07" y="98.28" width="5.87" height="10.87"/><rect class="cls-12" x="78.65" y="98.31" width="5.87" height="10.87"/><rect class="cls-12" x="86.24" y="98.35" width="5.87" height="10.87"/><rect class="cls-12" x="99.4" y="98.38" width="23.18" height="1.86"/><rect class="cls-12" x="99.4" y="105.25" width="23.18" height="4.01"/><circle class="cls-11" cx="100.76" cy="102.89" r="1.22"/><circle class="cls-11" cx="104.19" cy="102.89" r="1.22"/><circle class="cls-11" cx="107.62" cy="102.89" r="1.22"/><circle class="cls-11" cx="111.06" cy="102.89" r="1.22"/><circle class="cls-11" cx="114.49" cy="102.89" r="1.22"/><circle class="cls-11" cx="117.93" cy="102.89" r="1.22"/><circle class="cls-11" cx="121.36" cy="102.89" r="1.22"/></g><g><rect x="51.76" y="114.87" width="74.11" height="17.02"/><rect class="cls-12" x="55.91" y="117.95" width="5.87" height="10.87"/><rect class="cls-12" x="63.49" y="117.98" width="5.87" height="10.87"/><rect class="cls-12" x="71.07" y="118.02" width="5.87" height="10.87"/><rect class="cls-12" x="78.65" y="118.06" width="5.87" height="10.87"/><rect class="cls-12" x="86.24" y="118.09" width="5.87" height="10.87"/><rect class="cls-12" x="99.4" y="118.13" width="23.18" height="1.86"/><rect class="cls-12" x="99.4" y="125" width="23.18" height="4.01"/><circle class="cls-11" cx="100.76" cy="122.63" r="1.22"/><circle class="cls-11" cx="104.19" cy="122.63" r="1.22"/><circle class="cls-11" cx="107.62" cy="122.63" r="1.22"/><circle class="cls-11" cx="111.06" cy="122.63" r="1.22"/><circle class="cls-11" cx="114.49" cy="122.63" r="1.22"/><circle class="cls-11" cx="117.93" cy="122.63" r="1.22"/><circle class="cls-11" cx="121.36" cy="122.63" r="1.22"/></g><g><rect x="51.76" y="134.62" width="74.11" height="17.02"/><rect class="cls-12" x="55.91" y="137.69" width="5.87" height="10.87"/><rect class="cls-12" x="63.49" y="137.73" width="5.87" height="10.87"/><rect class="cls-12" x="71.07" y="137.76" width="5.87" height="10.87"/><rect class="cls-12" x="78.65" y="137.8" width="5.87" height="10.87"/><rect class="cls-12" x="86.24" y="137.84" width="5.87" height="10.87"/><rect class="cls-12" x="99.4" y="137.87" width="23.18" height="1.86"/><rect class="cls-12" x="99.4" y="144.74" width="23.18" height="4.01"/><circle class="cls-11" cx="100.76" cy="142.38" r="1.22"/><circle class="cls-11" cx="104.19" cy="142.38" r="1.22"/><circle class="cls-11" cx="107.62" cy="142.38" r="1.22"/><circle class="cls-11" cx="111.06" cy="142.38" r="1.22"/><circle class="cls-11" cx="114.49" cy="142.38" r="1.22"/><circle class="cls-11" cx="117.93" cy="142.38" r="1.22"/><circle class="cls-11" cx="121.36" cy="142.38" r="1.22"/></g><g><rect x="51.76" y="154.36" width="74.11" height="17.02"/><rect class="cls-12" x="55.91" y="157.44" width="5.87" height="10.87"/><rect class="cls-12" x="63.49" y="157.47" width="5.87" height="10.87"/><rect class="cls-12" x="71.07" y="157.51" width="5.87" height="10.87"/><rect class="cls-12" x="78.65" y="157.54" width="5.87" height="10.87"/><rect class="cls-12" x="86.24" y="157.58" width="5.87" height="10.87"/><rect class="cls-12" x="99.4" y="157.61" width="23.18" height="1.86"/><rect class="cls-12" x="99.4" y="164.48" width="23.18" height="4.01"/><circle class="cls-11" cx="100.76" cy="162.12" r="1.22"/><circle class="cls-11" cx="104.19" cy="162.12" r="1.22"/><circle class="cls-11" cx="107.62" cy="162.12" r="1.22"/><circle class="cls-11" cx="111.06" cy="162.12" r="1.22"/><circle class="cls-11" cx="114.49" cy="162.12" r="1.22"/><circle class="cls-11" cx="117.93" cy="162.12" r="1.22"/><circle class="cls-11" cx="121.36" cy="162.12" r="1.22"/></g><g><rect x="51.76" y="174.1" width="74.11" height="17.02"/><rect class="cls-12" x="55.91" y="177.18" width="5.87" height="10.87"/><rect class="cls-12" x="63.49" y="177.21" width="5.87" height="10.87"/><rect class="cls-12" x="71.07" y="177.25" width="5.87" height="10.87"/><rect class="cls-12" x="78.65" y="177.29" width="5.87" height="10.87"/><rect class="cls-12" x="86.24" y="177.32" width="5.87" height="10.87"/><rect class="cls-12" x="99.4" y="177.36" width="23.18" height="1.86"/><rect class="cls-12" x="99.4" y="184.22" width="23.18" height="4.01"/><circle class="cls-11" cx="100.76" cy="181.86" r="1.22"/><circle class="cls-11" cx="104.19" cy="181.86" r="1.22"/><circle class="cls-11" cx="107.62" cy="181.86" r="1.22"/><circle class="cls-11" cx="111.06" cy="181.86" r="1.22"/><circle class="cls-11" cx="114.49" cy="181.86" r="1.22"/><circle class="cls-11" cx="117.93" cy="181.86" r="1.22"/><circle class="cls-11" cx="121.36" cy="181.86" r="1.22"/></g><g><rect x="51.76" y="193.85" width="74.11" height="17.02"/><rect class="cls-12" x="55.91" y="196.92" width="5.87" height="10.87"/><rect class="cls-12" x="63.49" y="196.96" width="5.87" height="10.87"/><rect class="cls-12" x="71.07" y="196.99" width="5.87" height="10.87"/><rect class="cls-12" x="78.65" y="197.03" width="5.87" height="10.87"/><rect class="cls-12" x="86.24" y="197.06" width="5.87" height="10.87"/><rect class="cls-12" x="99.4" y="197.1" width="23.18" height="1.86"/><rect class="cls-12" x="99.4" y="203.97" width="23.18" height="4.01"/><circle class="cls-11" cx="100.76" cy="201.61" r="1.22"/><circle class="cls-11" cx="104.19" cy="201.61" r="1.22"/><circle class="cls-11" cx="107.62" cy="201.61" r="1.22"/><circle class="cls-11" cx="111.06" cy="201.61" r="1.22"/><circle class="cls-11" cx="114.49" cy="201.61" r="1.22"/><circle class="cls-11" cx="117.93" cy="201.61" r="1.22"/><circle class="cls-11" cx="121.36" cy="201.61" r="1.22"/></g></g></g><path class="cls-11" d="M212.99,128.64c-4.56-9.31-11.46-16.93-20.51-22.66-7.21-4.57-15.8-7.94-25.51-10.02-16.46-3.53-30.3-2.15-30.88-2.09-1.02,.11-1.76,1.02-1.66,2.04,.11,1.02,1.02,1.77,2.04,1.66,.14-.01,13.83-1.38,29.72,2.03,9.28,1.99,17.46,5.19,24.3,9.52,8.43,5.33,14.85,12.41,19.1,21.04l-4.5,2.02,9.96,5.75,2.56-11.37-4.62,2.07Z"/><g><rect class="cls-2" x="210.88" y="103.58" width="8.13" height="4.94" transform="translate(-22.7 137.22) rotate(-33.73)"/><g><polygon class="cls-3" points="210.2 106.25 215.16 106.36 216.96 101.74 210.2 106.25"/><path class="cls-10" d="M215.18,106.39h-.02s-5.05-.11-5.05-.11l6.9-4.61-1.84,4.72Zm-4.89-.16l4.86,.11,1.76-4.53-6.62,4.42Z"/></g></g><g><rect class="cls-2" x="220.28" y="115.28" width="15.84" height="9.63" transform="translate(150.5 -125.79) rotate(44.71)"/><g><polygon class="cls-3" points="225.96 111.1 227.68 120.62 237.21 122.25 225.96 111.1"/><path class="cls-10" d="M227.64,120.66v-.04s-1.76-9.68-1.76-9.68l11.49,11.37-9.73-1.66Zm-1.6-9.41l1.69,9.32,9.33,1.59-11.02-10.91Z"/></g></g></g></svg>