<?xml version="1.0" encoding="UTF-8"?><svg id="Capa_1" xmlns="http://www.w3.org/2000/svg" viewBox="0 0 326 228"><defs><style>.cls-1{fill:#fff;}.cls-2{fill:#333;}.cls-3{fill:#a2e4fc;}.cls-4{fill:gray;}.cls-5{fill:#595959;}</style></defs><g><g><rect class="cls-2" x="89.59" width="140.6" height="178.6" rx="3.29" ry="3.29"/><g><g><g><g><rect class="cls-5" x="101.94" y="40.73" width="115.9" height="26.6" rx="2.48" ry="2.48"/><g><rect class="cls-2" x="107.64" y="51.18" width="47.5" height="1.9"/><rect class="cls-2" x="107.64" y="54.98" width="47.5" height="1.9"/></g></g><g><circle class="cls-4" cx="167.49" cy="54.03" r="2.85"/><circle class="cls-4" cx="175.09" cy="54.03" r="2.85"/><circle class="cls-4" cx="182.69" cy="54.03" r="2.85"/></g></g><circle class="cls-2" cx="201.69" cy="54.03" r="6.65"/></g><g><g><g><rect class="cls-5" x="101.94" y="73.03" width="115.9" height="26.6" rx="2.48" ry="2.48"/><g><rect class="cls-2" x="107.64" y="83.48" width="47.5" height="1.9"/><rect class="cls-2" x="107.64" y="87.28" width="47.5" height="1.9"/></g></g><g><circle class="cls-4" cx="167.49" cy="86.33" r="2.85"/><circle class="cls-4" cx="175.09" cy="86.33" r="2.85"/><circle class="cls-4" cx="182.69" cy="86.33" r="2.85"/></g></g><circle class="cls-2" cx="201.69" cy="86.33" r="6.65"/></g><g><g><g><rect class="cls-5" x="101.94" y="105.33" width="115.9" height="26.6" rx="2.48" ry="2.48"/><g><rect class="cls-2" x="107.64" y="115.78" width="47.5" height="1.9"/><rect class="cls-2" x="107.64" y="119.58" width="47.5" height="1.9"/></g></g><g><circle class="cls-4" cx="167.49" cy="118.63" r="2.85"/><circle class="cls-4" cx="175.09" cy="118.63" r="2.85"/><circle class="cls-4" cx="182.69" cy="118.63" r="2.85"/></g></g><circle class="cls-2" cx="201.69" cy="118.63" r="6.65"/></g><g><g><g><rect class="cls-5" x="101.94" y="137.63" width="115.9" height="26.6" rx="2.48" ry="2.48"/><g><rect class="cls-2" x="107.64" y="148.08" width="47.5" height="1.9"/><rect class="cls-2" x="107.64" y="151.88" width="47.5" height="1.9"/></g></g><g><circle class="cls-4" cx="167.49" cy="150.93" r="2.85"/><circle class="cls-4" cx="175.09" cy="150.93" r="2.85"/><circle class="cls-4" cx="182.69" cy="150.93" r="2.85"/></g></g><circle class="cls-2" cx="201.69" cy="150.93" r="6.65"/></g></g></g><g><path class="cls-1" d="M129.61,31.52h-3.9v-6.61h-4.01v6.61h-3.93V15.64h3.93v5.96h4.01v-5.96h3.9v15.88Z"/><path class="cls-1" d="M142.56,16.4c1.26,.74,2.26,1.75,2.99,3.02,.73,1.27,1.1,2.66,1.1,4.16s-.37,2.86-1.11,4.13c-.74,1.27-1.74,2.27-3.01,3.01-1.27,.75-2.64,1.12-4.11,1.12s-2.83-.37-4.09-1.12c-1.25-.73-2.25-1.74-2.98-3.01s-1.1-2.65-1.1-4.13c0-1.13,.21-2.2,.63-3.21,.42-1.01,1.01-1.9,1.76-2.66,.75-.76,1.63-1.36,2.63-1.79,1-.43,2.05-.64,3.15-.64,1.49,0,2.87,.37,4.13,1.11Zm-6.23,3.31c-.65,.39-1.16,.93-1.53,1.6-.37,.67-.56,1.41-.56,2.21s.19,1.51,.57,2.18,.89,1.19,1.53,1.59c.64,.39,1.34,.59,2.1,.59s1.48-.19,2.13-.58c.65-.39,1.17-.92,1.55-1.6,.37-.67,.56-1.39,.56-2.17s-.19-1.53-.57-2.21-.89-1.21-1.54-1.6-1.36-.58-2.13-.58-1.46,.2-2.1,.59Z"/><path class="cls-1" d="M146.19,31.52v-3.56h5.13c1.07,0,1.6-.23,1.6-.7,0-.22-.11-.44-.32-.67s-.62-.56-1.22-.98l-3.36-2.33c-.68-.51-1.17-1.02-1.45-1.53-.28-.51-.42-1.11-.42-1.8,0-.95,.25-1.75,.74-2.4,.49-.65,1.14-1.13,1.95-1.44s1.67-.47,2.59-.47h4.62v3.51h-3.35c-.94,.01-1.54,.07-1.83,.19-.47,.09-.71,.29-.71,.61,0,.19,.08,.4,.23,.62s.35,.4,.57,.55l4.32,2.76c1.05,.72,1.57,1.76,1.57,3.12,0,.73-.17,1.43-.52,2.12-.35,.69-.82,1.23-1.42,1.64-.86,.5-2.02,.76-3.48,.76h-5.23Z"/><path class="cls-1" d="M163.72,31.52h-3.9v-12.36h-3.22v-3.52h10.31v3.51h-3.2v12.37Z"/><path class="cls-1" d="M171.46,31.52h-3.93V15.64h3.93v15.88Z"/><path class="cls-1" d="M181.17,15.64h3.89v13.31c0,.81-.19,1.47-.56,1.98-.36,.51-.94,.77-1.73,.77-.56,0-1.07-.16-1.53-.47-.46-.3-.83-.71-1.12-1.25l-3.76-7.69v9.22h-3.85v-13.4c0-.8,.21-1.46,.64-1.97,.43-.51,1.03-.77,1.82-.77,1.21,0,2.12,.6,2.72,1.8l3.48,7.31V15.64Z"/><path class="cls-1" d="M202,22.08c0,1.88-.12,3.26-.37,4.15-.26,.82-.64,1.58-1.15,2.26-.5,.68-1.1,1.27-1.79,1.77-.69,.5-1.45,.89-2.27,1.16-.82,.28-1.66,.42-2.52,.42-1.48,0-2.86-.37-4.11-1.11-1.26-.74-2.25-1.74-2.99-3.01-.73-1.27-1.1-2.65-1.1-4.14s.36-2.9,1.09-4.17c.73-1.28,1.74-2.28,3.01-3.02,1.27-.73,2.66-1.1,4.17-1.1,.76,0,1.5,.1,2.24,.31,.73,.2,1.44,.51,2.13,.91,.68,.4,1.31,.88,1.88,1.42l-2.76,2.53c-1.14-.94-2.28-1.41-3.44-1.41-.82,0-1.57,.2-2.23,.59s-1.18,.94-1.56,1.65c-.38,.7-.57,1.47-.57,2.33s.19,1.66,.56,2.37,.89,1.25,1.56,1.65,1.41,.6,2.23,.6c1,0,1.86-.29,2.58-.86,.71-.56,1.14-1.28,1.27-2.18h-4.58v-3.09h8.71Z"/></g></g><path class="cls-3" d="M146.21,163.61c-.86-9.7-8.99-17.31-18.91-17.31-3.51,0-6.79,.97-9.61,2.63-1.1-18.42-16.35-33.03-35.04-33.03-16.55,0-30.39,11.45-34.12,26.85-.96-.15-1.93-.25-2.93-.25-10.49,0-19,8.51-19,19,0,.51,.04,1.01,.08,1.5-15.46,4.22-26.68,16.83-26.68,31.75,0,18.36,17.01,33.25,38,33.25h91.2c.6,0,1.18-.04,1.77-.09,.68,.03,1.35,.09,2.03,.09,20.99,0,38-14.89,38-33.25,0-14.29-10.32-26.44-24.79-31.14Z"/><path class="cls-3" d="M301.21,163.61c-.86-9.7-8.99-17.31-18.91-17.31-3.51,0-6.79,.97-9.61,2.63-1.1-18.42-16.35-33.03-35.04-33.03-16.55,0-30.39,11.45-34.12,26.85-.96-.15-1.93-.25-2.93-.25-10.49,0-19,8.51-19,19,0,.51,.04,1.01,.08,1.5-15.46,4.22-26.68,16.83-26.68,31.75,0,18.36,17.01,33.25,38,33.25h91.2c.6,0,1.18-.04,1.77-.09,.68,.03,1.35,.09,2.03,.09,20.99,0,38-14.89,38-33.25,0-14.29-10.32-26.44-24.79-31.14Z"/></svg>