<?xml version="1.0" encoding="UTF-8"?><svg id="Capa_1" xmlns="http://www.w3.org/2000/svg" viewBox="0 0 76.06 76.06"><defs><style>.cls-1{fill:#577bc1;}</style></defs><path class="cls-1" d="M38.03,0C17.03,0,0,17.03,0,38.03s17.03,38.03,38.03,38.03,38.03-17.03,38.03-38.03S59.03,0,38.03,0Zm0,71.69c-18.59,0-33.66-15.07-33.66-33.66S19.44,4.37,38.03,4.37s33.66,15.07,33.66,33.66-15.07,33.66-33.66,33.66Z"/><path class="cls-1" d="M20.54,17.76H55.52l-3.18,36.42-14.34,4.12-14.26-4.12-3.19-36.42h0Zm11.71,16.47l-.38-4.59h16.75l.38-4.42H27.06l1.16,13.52h15.2l-.54,5.79-4.84,1.36-4.92-1.36-.31-3.56h-4.34l.55,7.04,9.03,2.45,8.96-2.44,1.24-13.78h-16Z"/></svg>