<?xml version="1.0" encoding="UTF-8"?><svg id="Capa_1" xmlns="http://www.w3.org/2000/svg" viewBox="0 0 30 30"><defs><style>.cls-1{fill:#4c7cc6;}</style></defs><path class="cls-1" d="M.05,19c.1,.38,.35,.7,.69,.9l2.87,1.67v3.3c0,.83,.67,1.5,1.5,1.5h3.3l1.67,2.87c.27,.46,.76,.75,1.29,.75,.27,0,.53-.07,.77-.21l2.85-1.65,2.87,1.65c.72,.42,1.64,.18,2.05-.54,0,0,0,0,0,0l1.65-2.87h3.3c.83,0,1.5-.67,1.5-1.5v-3.3l2.87-1.67c.72-.41,.96-1.32,.56-2.04l-1.67-2.88,1.67-2.87c.41-.72,.16-1.63-.56-2.04l-2.87-1.65v-3.3c0-.83-.67-1.5-1.5-1.5h-3.3l-1.65-2.87c-.2-.34-.53-.59-.92-.69-.39-.1-.8-.05-1.14,.15l-2.88,1.65L12.13,.2c-.71-.41-1.62-.17-2.04,.54l-1.67,2.87h-3.3c-.83,0-1.5,.67-1.5,1.5v3.3l-2.85,1.65c-.72,.41-.97,1.33-.56,2.05,0,0,0,0,0,0l1.65,2.85L.2,17.85c-.2,.35-.26,.77-.15,1.16Zm4.84-4.76l-1.34-2.27,2.33-1.35c.46-.27,.74-.76,.74-1.29v-2.72h2.67c.54,0,1.04-.28,1.31-.75l1.38-2.31,2.31,1.34c.46,.27,1.04,.27,1.5,0l2.33-1.34,1.37,2.31c.27,.47,.77,.75,1.31,.75h2.66v2.67c0,.53,.29,1.02,.75,1.29l2.31,1.35-1.34,2.31c-.27,.46-.27,1.04,0,1.5l1.34,2.31-2.31,1.35c-.46,.27-.75,.76-.75,1.29v2.67h-2.75c-.53,0-1.02,.29-1.29,.75l-1.34,2.31-2.33-1.34c-.46-.27-1.04-.27-1.5,0l-2.27,1.34-1.34-2.31c-.27-.47-.77-.75-1.31-.75h-2.72v-2.67c-.03-.5-.3-.96-.74-1.22l-2.33-1.35,1.34-2.31c.3-.48,.3-1.09,0-1.58Z"/><path class="cls-1" d="M9.05,16.81c.04,.15,.14,.29,.28,.36l1.15,.66v1.32c0,.33,.27,.6,.6,.6h1.32l.66,1.15c.17,.29,.53,.39,.82,.22l1.15-.66,1.15,.66c.29,.17,.65,.07,.82-.22l.66-1.15h1.32c.33,0,.6-.27,.6-.6v-1.32l1.15-.66c.29-.17,.39-.53,.22-.82,0,0,0,0,0,0l-.66-1.15,.66-1.15c.17-.29,.07-.65-.22-.82l-1.15-.66v-1.32c0-.33-.27-.6-.6-.6h-1.32l-.66-1.15c-.08-.14-.21-.24-.36-.28-.15-.04-.32-.02-.46,.06l-1.15,.66-1.15-.66c-.29-.17-.65-.07-.82,.22,0,0,0,0,0,0l-.66,1.15h-1.32c-.33,0-.6,.27-.6,.6v1.32l-1.15,.66c-.29,.17-.38,.53-.22,.82l.66,1.15-.66,1.15c-.08,.14-.1,.3-.06,.46Z"/></svg>