<?xml version="1.0" encoding="UTF-8"?><svg id="Capa_1" xmlns="http://www.w3.org/2000/svg" viewBox="0 0 75 75.12"><defs><style>.cls-1{fill:#577bc1;}</style></defs><path class="cls-1" d="M37.47,18.21c-10.64,0-19.26,8.62-19.26,19.26s8.62,19.26,19.26,19.26,19.26-8.62,19.26-19.26-8.62-19.26-19.26-19.26Zm0,31.77c-6.91,0-12.51-5.6-12.52-12.51,0-6.91,5.6-12.51,12.51-12.52h0c6.91,0,12.51,5.61,12.51,12.52,0,6.91-5.6,12.5-12.51,12.51Z"/><g><circle class="cls-1" cx="57.49" cy="17.5" r="4.49"/><path class="cls-1" d="M73.01,12.94c-1.95-5.03-5.93-9.01-10.97-10.96-2.91-1.09-5.99-1.69-9.1-1.75-4.01-.17-5.28-.22-15.45-.22s-11.47,0-15.45,.22c-3.11,.06-6.19,.65-9.1,1.75C7.91,3.92,3.93,7.9,1.98,12.94,.88,15.85,.29,18.93,.23,22.04c-.18,4.01-.23,5.28-.23,15.45s0,11.47,.23,15.45c.06,3.12,.65,6.19,1.75,9.11,1.95,5.03,5.93,9.01,10.97,10.96,2.9,1.14,5.98,1.77,9.1,1.87,4.01,.17,5.28,.23,15.45,.23s11.47,0,15.45-.23c3.11-.06,6.19-.65,9.1-1.75,5.03-1.95,9.01-5.93,10.97-10.97,1.1-2.92,1.68-5.99,1.75-9.1,.18-4.01,.23-5.28,.23-15.45s0-11.47-.23-15.45c-.05-3.16-.64-6.28-1.75-9.23Zm-5.07,39.7c-.03,2.4-.46,4.78-1.3,7.03-1.26,3.28-3.85,5.86-7.13,7.13-2.23,.83-4.58,1.26-6.96,1.3-3.96,.18-5.07,.23-15.22,.23s-11.19,0-15.22-.23c-2.37-.03-4.73-.47-6.95-1.3-3.29-1.26-5.89-3.84-7.16-7.13-.82-2.23-1.26-4.58-1.3-6.95-.18-3.96-.22-5.07-.22-15.22s0-11.19,.22-15.22c.03-2.4,.47-4.78,1.3-7.03,1.27-3.29,3.87-5.87,7.16-7.13,2.23-.82,4.58-1.26,6.95-1.3,3.96-.18,5.07-.23,15.22-.23s11.19,0,15.22,.23c2.38,.03,4.73,.47,6.96,1.3,3.28,1.27,5.86,3.85,7.13,7.13,.82,2.23,1.26,4.58,1.3,6.95,.18,3.96,.22,5.07,.22,15.22s0,11.24-.18,15.22h-.05Z"/></g></svg>