<?xml version="1.0" encoding="UTF-8"?><svg id="Capa_1" xmlns="http://www.w3.org/2000/svg" viewBox="0 0 76.06 76.06"><defs><style>.cls-1{fill:#f8f8f8;}.cls-2{fill:#ff3f3a;}</style></defs><g><circle class="cls-2" cx="38.03" cy="38.03" r="38.03"/><circle class="cls-1" cx="38.03" cy="38.03" r="33.66"/></g><path class="cls-2" d="M55.5,28.17s-.01-.03-.02-.05c-.01-.03-.02-.06-.04-.09-.01-.02-.02-.03-.04-.05-.02-.02-.03-.05-.05-.07-.02-.02-.04-.03-.05-.04-.02-.02-.04-.03-.06-.05l-6.77-3.9c-.17-.1-.39-.1-.56,0l-6.77,3.9h0s-.04,.03-.06,.05c-.02,.01-.04,.03-.05,.04-.02,.02-.04,.04-.05,.07-.01,.02-.03,.03-.04,.05-.01,.03-.03,.06-.04,.09,0,.02-.01,.03-.02,.05-.01,.05-.02,.1-.02,.15v7.4l-5.64,3.25v-14.48s0-.1-.02-.15c0-.02-.01-.03-.02-.05,0-.03-.02-.06-.04-.09,0-.02-.03-.03-.04-.05-.02-.02-.03-.05-.05-.07-.02-.02-.04-.03-.05-.04-.02-.02-.04-.03-.06-.05h0l-6.77-3.9c-.17-.1-.39-.1-.56,0l-6.77,3.9h0s-.04,.03-.06,.05c-.02,.01-.04,.03-.06,.04-.02,.02-.03,.04-.05,.07-.01,.02-.03,.03-.04,.05-.01,.03-.03,.06-.04,.09,0,.02-.01,.03-.02,.05-.01,.05-.02,.1-.02,.15v23.18c0,.2,.11,.39,.28,.49l13.54,7.79s.06,.03,.09,.04c.01,0,.03,.01,.04,.02,.09,.03,.19,.03,.29,0,.01,0,.03-.01,.04-.02,.03-.01,.07-.02,.1-.04l13.54-7.79c.17-.1,.28-.29,.28-.49v-7.4l6.49-3.73c.18-.1,.28-.29,.28-.49v-7.72s0-.1-.02-.15Zm-27.62-6.93h0l5.64,3.25-5.64,3.25-5.64-3.25,5.64-3.25Zm6.21,4.22v14.16l-3.27,1.88-2.37,1.36v-14.15l3.27-1.88,2.37-1.37Zm0,29.03l-12.41-7.14V25.47l2.37,1.36,3.27,1.88v15.13s0,.04,0,.06c0,.03,0,.06,.01,.08h0s.02,.04,.03,.06c0,.02,.02,.05,.03,.07h0s.03,.04,.04,.05c.01,.02,.03,.04,.05,.06h0s.04,.03,.05,.04c.02,.02,.04,.03,.06,.05h0l6.48,3.67v6.49Zm.57-7.47l-5.63-3.19,5.91-3.4,6.49-3.73,5.63,3.24-4.13,2.36-8.27,4.72Zm12.98,.32l-12.41,7.15v-6.49l9.19-5.25,3.22-1.84v6.43Zm0-8.38l-2.37-1.36-3.27-1.88v-6.43l2.37,1.36,3.27,1.89v6.42Zm.56-7.4l-5.64-3.25,5.64-3.25,5.64,3.25-5.64,3.25Zm.56,7.4v-6.42l3.28-1.89,2.37-1.36v6.43h0l-5.65,3.25Z"/></svg>