<?xml version="1.0" encoding="UTF-8"?><svg id="Capa_1" xmlns="http://www.w3.org/2000/svg" viewBox="0 0 75 75"><defs><style>.cls-1{fill:#577bc1;}</style></defs><path class="cls-1" d="M70.83,0H4.17C1.87,0,0,1.87,0,4.17V70.83c0,2.3,1.87,4.17,4.17,4.17H70.83c2.3,0,4.17-1.87,4.17-4.17V4.17c0-2.3-1.87-4.17-4.17-4.17ZM22.25,63.9H11.11V28.11h11.13V63.9Zm-5.57-40.68c-3.56,0-6.45-2.89-6.45-6.45,0-3.56,2.89-6.45,6.45-6.45h0c3.56,0,6.45,2.89,6.45,6.45,0,3.56-2.89,6.45-6.45,6.45ZM63.91,63.9h-11.12v-17.4c0-4.15-.07-9.49-5.78-9.49s-6.67,4.53-6.67,9.2v17.7h-11.11V28.12h10.67v4.89h.15c1.48-2.81,5.11-5.78,10.52-5.78,11.27,0,13.35,7.41,13.35,17.05v19.62h0Z"/></svg>