<?xml version="1.0" encoding="UTF-8"?><svg id="Capa_1" xmlns="http://www.w3.org/2000/svg" viewBox="0 0 199.29 154.17"><defs><style>.cls-1{fill:#4c7cc6;}</style></defs><g><g><polygon class="cls-1" points="42.91 31.06 12.5 16.18 12.5 45.94 72.48 45.94 72.48 16.18 42.91 31.06"/><polygon class="cls-1" points="12.53 15.1 42.94 29.98 72.5 15.1 12.53 15.1"/></g><g><polygon class="cls-1" points="107.37 79.76 64.29 58.68 64.29 100.84 149.25 100.84 149.25 58.68 107.37 79.76"/><polygon class="cls-1" points="64.32 57.14 107.41 78.22 149.29 57.14 64.32 57.14"/></g><g><polygon class="cls-1" points="152.27 18.62 116.79 1.26 116.79 35.98 186.76 35.98 186.76 1.26 152.27 18.62"/><polygon class="cls-1" points="116.82 0 152.3 17.36 186.79 0 116.82 0"/></g></g><g><path class="cls-1" d="M.6,142.17c.4-.74,.96-1.3,1.68-1.7,.72-.4,1.54-.59,2.47-.59,1.19,0,2.18,.31,2.98,.94,.8,.62,1.32,1.5,1.57,2.63h-3.09c-.26-.73-.77-1.09-1.51-1.09-.53,0-.96,.21-1.27,.62-.32,.41-.48,1.01-.48,1.78s.16,1.36,.48,1.78c.32,.41,.74,.62,1.27,.62,.75,0,1.25-.36,1.51-1.09h3.09c-.25,1.11-.78,1.98-1.58,2.62-.8,.63-1.8,.95-2.97,.95-.93,0-1.75-.2-2.47-.59s-1.28-.96-1.68-1.7c-.4-.74-.6-1.6-.6-2.58s.2-1.85,.6-2.58Z"/><path class="cls-1" d="M12.67,149.04c-.74-.4-1.33-.96-1.75-1.7-.42-.74-.64-1.6-.64-2.58s.22-1.83,.65-2.58,1.02-1.31,1.77-1.71c.75-.4,1.59-.59,2.52-.59s1.77,.2,2.52,.59c.75,.4,1.34,.97,1.77,1.71,.43,.74,.65,1.6,.65,2.58s-.22,1.83-.65,2.58c-.44,.74-1.03,1.31-1.79,1.71s-1.6,.59-2.52,.59-1.77-.2-2.51-.59Zm3.93-2.53c.39-.41,.59-.99,.59-1.75s-.19-1.34-.57-1.75-.85-.61-1.4-.61-1.04,.2-1.41,.6c-.37,.4-.56,.99-.56,1.76s.18,1.34,.55,1.75,.83,.61,1.39,.61,1.03-.2,1.42-.61Z"/><path class="cls-1" d="M25.88,140.36c.51-.3,1.08-.45,1.7-.45v3.08h-.8c-.73,0-1.27,.16-1.63,.47-.36,.31-.54,.86-.54,1.64v4.4h-2.91v-9.49h2.91v1.58c.34-.52,.76-.93,1.28-1.23Z"/><path class="cls-1" d="M37.86,145.45h-6.58c.04,.59,.24,1.04,.57,1.35s.75,.47,1.23,.47c.73,0,1.23-.31,1.51-.92h3.09c-.16,.62-.45,1.18-.86,1.68-.41,.5-.93,.89-1.55,1.17-.62,.28-1.32,.42-2.09,.42-.93,0-1.76-.2-2.48-.59-.73-.4-1.29-.96-1.7-1.7-.41-.74-.61-1.6-.61-2.58s.2-1.85,.6-2.58c.4-.74,.97-1.3,1.69-1.7,.72-.4,1.56-.59,2.5-.59s1.73,.19,2.45,.58c.71,.39,1.27,.93,1.67,1.65,.4,.71,.6,1.55,.6,2.5,0,.27-.02,.56-.05,.85Zm-2.92-1.62c0-.5-.17-.9-.51-1.19-.34-.29-.76-.44-1.27-.44s-.9,.14-1.23,.42c-.33,.28-.54,.69-.62,1.21h3.64Z"/><path class="cls-1" d="M41.25,149.04c-.74-.4-1.33-.96-1.75-1.7-.42-.74-.64-1.6-.64-2.58s.22-1.83,.65-2.58,1.02-1.31,1.77-1.71c.75-.4,1.59-.59,2.52-.59s1.77,.2,2.52,.59c.75,.4,1.34,.97,1.77,1.71,.43,.74,.65,1.6,.65,2.58s-.22,1.83-.65,2.58c-.44,.74-1.03,1.31-1.79,1.71s-1.6,.59-2.52,.59-1.77-.2-2.51-.59Zm3.93-2.53c.39-.41,.59-.99,.59-1.75s-.19-1.34-.57-1.75-.85-.61-1.4-.61-1.04,.2-1.41,.6c-.37,.4-.56,.99-.56,1.76s.18,1.34,.55,1.75,.83,.61,1.39,.61,1.03-.2,1.42-.61Z"/><path class="cls-1" d="M63.22,138.9c1,.5,1.77,1.21,2.3,2.12s.81,1.96,.81,3.15c0,.96-.17,1.86-.5,2.69s-.83,1.49-1.48,1.98c-.65,.49-1.43,.74-2.32,.74-.6,0-1.1-.12-1.49-.36-.39-.24-.65-.57-.79-1-.32,.44-.73,.79-1.22,1.03-.5,.24-1.04,.37-1.63,.37-.84,0-1.5-.25-1.98-.76-.48-.5-.72-1.19-.72-2.07,0-.83,.17-1.61,.51-2.34,.34-.73,.81-1.32,1.41-1.76,.6-.44,1.27-.66,2.02-.66,.95,0,1.6,.34,1.94,1.02l.15-.9h2.35l-.75,4.27c-.03,.2-.05,.39-.05,.54,0,.5,.22,.75,.66,.75,.54,0,.96-.35,1.25-1.04,.29-.7,.43-1.5,.43-2.41,0-1.3-.41-2.32-1.23-3.06-.82-.74-1.98-1.11-3.46-1.11-1.27,0-2.42,.31-3.46,.92-1.04,.61-1.85,1.45-2.44,2.51-.59,1.06-.88,2.22-.88,3.49,0,1.37,.4,2.44,1.2,3.2,.8,.76,1.92,1.14,3.36,1.14,1.12,0,2.12-.2,3.01-.61l.46,1.85c-1.11,.49-2.36,.73-3.74,.73-1.29,0-2.43-.25-3.41-.75-.98-.5-1.74-1.21-2.27-2.12-.53-.92-.8-1.99-.8-3.21,0-1.71,.4-3.26,1.21-4.65,.8-1.39,1.91-2.48,3.32-3.26,1.41-.79,2.99-1.18,4.73-1.18,1.34,0,2.5,.25,3.5,.76Zm-4.48,8.34c.28-.19,.5-.45,.66-.77,.16-.32,.25-.67,.25-1.05s-.11-.7-.32-.94c-.22-.24-.51-.37-.88-.37-.5,0-.91,.21-1.24,.65-.33,.43-.49,.94-.49,1.53,0,.37,.1,.67,.29,.9,.19,.23,.48,.34,.85,.34,.32,0,.62-.1,.89-.29Z"/><path class="cls-1" d="M73.92,147.03v2.46h-1.48c-1.05,0-1.88-.26-2.46-.77-.59-.52-.88-1.36-.88-2.52v-3.77h-1.16v-2.41h1.16v-2.31h2.91v2.31h1.9v2.41h-1.9v3.81c0,.28,.07,.49,.2,.61,.14,.12,.36,.19,.68,.19h1.04Z"/><path class="cls-1" d="M84.9,140.01v9.49h-2.91v-1.29c-.29,.42-.69,.76-1.2,1.01s-1.06,.38-1.67,.38c-.72,0-1.37-.16-1.92-.48-.55-.32-.99-.79-1.29-1.4-.31-.61-.46-1.33-.46-2.16v-5.54h2.89v5.15c0,.63,.16,1.13,.49,1.48,.33,.35,.77,.53,1.33,.53s1.01-.18,1.34-.53c.33-.35,.49-.84,.49-1.48v-5.15h2.91Z"/><path class="cls-1" d="M95.43,140.99c.66,.72,1,1.71,1,2.97v5.54h-2.89v-5.15c0-.63-.16-1.13-.49-1.48-.33-.35-.77-.53-1.33-.53s-1,.18-1.33,.53c-.33,.35-.49,.84-.49,1.48v5.15h-2.91v-9.49h2.91v1.26c.29-.42,.69-.75,1.19-1,.5-.24,1.06-.37,1.68-.37,1.11,0,2,.36,2.66,1.08Z"/><path class="cls-1" d="M107.34,145.45h-6.58c.04,.59,.24,1.04,.57,1.35s.75,.47,1.23,.47c.73,0,1.23-.31,1.51-.92h3.09c-.16,.62-.45,1.18-.86,1.68-.41,.5-.93,.89-1.55,1.17-.62,.28-1.32,.42-2.09,.42-.93,0-1.76-.2-2.48-.59-.73-.4-1.29-.96-1.7-1.7-.41-.74-.61-1.6-.61-2.58s.2-1.85,.6-2.58c.4-.74,.97-1.3,1.69-1.7,.72-.4,1.56-.59,2.5-.59s1.73,.19,2.45,.58c.71,.39,1.27,.93,1.67,1.65,.4,.71,.6,1.55,.6,2.5,0,.27-.02,.56-.05,.85Zm-2.92-1.62c0-.5-.17-.9-.51-1.19-.34-.29-.76-.44-1.27-.44s-.9,.14-1.23,.42c-.33,.28-.54,.69-.62,1.21h3.64Z"/><path class="cls-1" d="M114.28,140.28c.5,.27,.89,.63,1.16,1.07v-1.34h2.91v9.47c0,.87-.17,1.66-.52,2.37s-.87,1.27-1.58,1.69c-.71,.42-1.59,.63-2.64,.63-1.41,0-2.54-.33-3.42-.99-.87-.66-1.37-1.56-1.5-2.69h2.87c.09,.36,.31,.65,.65,.86,.34,.21,.76,.31,1.26,.31,.6,0,1.08-.17,1.44-.52,.36-.35,.54-.9,.54-1.66v-1.34c-.28,.44-.67,.8-1.17,1.08-.5,.28-1.08,.42-1.75,.42-.78,0-1.49-.2-2.12-.6s-1.14-.97-1.5-1.72-.55-1.6-.55-2.58,.18-1.83,.55-2.57c.37-.74,.87-1.3,1.5-1.7,.63-.4,1.34-.59,2.12-.59,.67,0,1.25,.14,1.76,.41Zm.56,2.75c-.4-.42-.89-.63-1.47-.63s-1.07,.21-1.47,.62c-.4,.41-.6,.98-.6,1.71s.2,1.3,.6,1.73c.4,.42,.89,.64,1.47,.64s1.07-.21,1.47-.63c.4-.42,.6-.99,.6-1.72s-.2-1.3-.6-1.72Z"/><path class="cls-1" d="M122.27,149.04c-.74-.4-1.33-.96-1.75-1.7-.42-.74-.64-1.6-.64-2.58s.22-1.83,.65-2.58,1.02-1.31,1.77-1.71c.75-.4,1.59-.59,2.52-.59s1.77,.2,2.52,.59c.75,.4,1.34,.97,1.77,1.71,.43,.74,.65,1.6,.65,2.58s-.22,1.83-.65,2.58c-.44,.74-1.03,1.31-1.79,1.71s-1.6,.59-2.52,.59-1.77-.2-2.51-.59Zm3.93-2.53c.39-.41,.59-.99,.59-1.75s-.19-1.34-.57-1.75-.85-.61-1.4-.61-1.04,.2-1.41,.6c-.37,.4-.56,.99-.56,1.76s.18,1.34,.55,1.75,.83,.61,1.39,.61,1.03-.2,1.42-.61Z"/><path class="cls-1" d="M131.32,142.17c.4-.74,.96-1.3,1.68-1.7,.72-.4,1.54-.59,2.47-.59,1.19,0,2.18,.31,2.98,.94,.8,.62,1.32,1.5,1.57,2.63h-3.09c-.26-.73-.77-1.09-1.51-1.09-.53,0-.96,.21-1.27,.62-.32,.41-.48,1.01-.48,1.78s.16,1.36,.48,1.78c.32,.41,.74,.62,1.27,.62,.75,0,1.25-.36,1.51-1.09h3.09c-.25,1.11-.78,1.98-1.58,2.62-.8,.63-1.8,.95-2.97,.95-.93,0-1.75-.2-2.47-.59s-1.28-.96-1.68-1.7c-.4-.74-.6-1.6-.6-2.58s.2-1.85,.6-2.58Z"/><path class="cls-1" d="M141.79,138.57c-.32-.3-.48-.67-.48-1.11s.16-.83,.48-1.13c.32-.3,.74-.45,1.25-.45s.91,.15,1.23,.45c.32,.3,.49,.68,.49,1.13s-.16,.81-.49,1.11c-.32,.3-.73,.45-1.23,.45s-.93-.15-1.25-.45Zm2.69,1.44v9.49h-2.91v-9.49h2.91Z"/><path class="cls-1" d="M148.4,149.04c-.74-.4-1.33-.96-1.75-1.7-.42-.74-.64-1.6-.64-2.58s.22-1.83,.65-2.58,1.02-1.31,1.77-1.71c.75-.4,1.59-.59,2.52-.59s1.77,.2,2.52,.59c.75,.4,1.34,.97,1.77,1.71,.43,.74,.65,1.6,.65,2.58s-.22,1.83-.65,2.58c-.44,.74-1.03,1.31-1.79,1.71s-1.6,.59-2.52,.59-1.77-.2-2.51-.59Zm3.93-2.53c.39-.41,.59-.99,.59-1.75s-.19-1.34-.57-1.75-.85-.61-1.4-.61-1.04,.2-1.41,.6c-.37,.4-.56,.99-.56,1.76s.18,1.34,.55,1.75,.83,.61,1.39,.61,1.03-.2,1.42-.61Z"/><path class="cls-1" d="M157.53,149.18c-.32-.3-.48-.67-.48-1.11s.16-.83,.48-1.14c.32-.31,.74-.46,1.25-.46s.91,.15,1.23,.46c.32,.31,.48,.69,.48,1.14s-.16,.81-.48,1.11c-.32,.3-.73,.45-1.23,.45s-.93-.15-1.25-.45Z"/><path class="cls-1" d="M162.24,142.17c.4-.74,.96-1.3,1.68-1.7,.72-.4,1.54-.59,2.47-.59,1.19,0,2.18,.31,2.98,.94,.8,.62,1.32,1.5,1.57,2.63h-3.09c-.26-.73-.77-1.09-1.51-1.09-.53,0-.96,.21-1.27,.62-.32,.41-.48,1.01-.48,1.78s.16,1.36,.48,1.78c.32,.41,.74,.62,1.27,.62,.75,0,1.25-.36,1.51-1.09h3.09c-.25,1.11-.78,1.98-1.58,2.62-.8,.63-1.8,.95-2.97,.95-.93,0-1.75-.2-2.47-.59s-1.28-.96-1.68-1.7c-.4-.74-.6-1.6-.6-2.58s.2-1.85,.6-2.58Z"/><path class="cls-1" d="M174.31,149.04c-.74-.4-1.33-.96-1.75-1.7-.42-.74-.64-1.6-.64-2.58s.22-1.83,.65-2.58,1.02-1.31,1.77-1.71c.75-.4,1.59-.59,2.52-.59s1.77,.2,2.52,.59c.75,.4,1.34,.97,1.77,1.71,.43,.74,.65,1.6,.65,2.58s-.22,1.83-.65,2.58c-.44,.74-1.03,1.31-1.79,1.71s-1.6,.59-2.52,.59-1.77-.2-2.51-.59Zm3.93-2.53c.39-.41,.59-.99,.59-1.75s-.19-1.34-.57-1.75-.85-.61-1.4-.61-1.04,.2-1.41,.6c-.37,.4-.56,.99-.56,1.76s.18,1.34,.55,1.75,.83,.61,1.39,.61,1.03-.2,1.42-.61Z"/><path class="cls-1" d="M198.24,140.98c.7,.71,1.04,1.71,1.04,2.97v5.54h-2.89v-5.15c0-.61-.16-1.08-.48-1.42s-.77-.5-1.33-.5-1.01,.17-1.33,.5-.48,.81-.48,1.42v5.15h-2.89v-5.15c0-.61-.16-1.08-.48-1.42s-.77-.5-1.33-.5-1.01,.17-1.33,.5-.48,.81-.48,1.42v5.15h-2.91v-9.49h2.91v1.19c.29-.4,.68-.71,1.16-.94,.48-.23,1.01-.35,1.62-.35,.71,0,1.35,.15,1.91,.46s1,.74,1.32,1.31c.33-.52,.78-.95,1.34-1.27,.57-.33,1.18-.49,1.85-.49,1.18,0,2.12,.36,2.81,1.07Z"/></g></svg>