<?xml version="1.0" encoding="UTF-8"?><svg id="Capa_1" xmlns="http://www.w3.org/2000/svg" viewBox="0 0 76 77"><defs><style>.cls-1{fill:#577bc1;}</style></defs><path class="cls-1" d="M38,77C17.05,77,0,59.73,0,38.5S17.05,0,38,0s38,17.27,38,38.5-17.05,38.5-38,38.5Zm0-74C18.7,3,3,18.93,3,38.5s15.7,35.5,35,35.5,35-15.93,35-35.5S57.3,3,38,3Z"/><path class="cls-1" d="M38.04,61.61c-12.41,0-22.5-10.32-22.5-23,0-10.46,6.91-19.62,16.8-22.26l3.61-.96-2.65,2.64c-3.75,3.74-5.77,8.71-5.67,14.01,.09,4.97,2.13,9.64,5.58,12.84,6.58,6.08,17.35,6.11,24.54,.07l2.71-2.28-1.12,3.36c-3.1,9.32-11.67,15.59-21.31,15.59ZM29.43,19.54c-7.15,3.38-11.89,10.77-11.89,19.07,0,11.58,9.2,21,20.5,21,7.65,0,14.55-4.34,18.07-11.08-7.73,4.51-17.8,3.77-24.25-2.19-3.85-3.56-6.12-8.76-6.22-14.27-.08-4.55,1.24-8.89,3.79-12.53Z"/></svg>