<?xml version="1.0" encoding="UTF-8"?><svg id="Capa_1" xmlns="http://www.w3.org/2000/svg" viewBox="0 0 76.06 76.06"><defs><style>.cls-1{fill:#f8f8f8;}.cls-2{fill:#767bb6;}</style></defs><g><circle class="cls-2" cx="38.03" cy="38.03" r="38.03"/><circle class="cls-1" cx="38.03" cy="38.03" r="33.66"/></g><path class="cls-2" d="M38.03,29.75c9.37,0,16.57,3.95,16.57,8.28s-7.21,8.28-16.57,8.28-16.57-3.95-16.57-8.28,7.21-8.28,16.57-8.28m0-.92c-9.66,0-17.49,4.11-17.49,9.2s7.83,9.2,17.49,9.2,17.49-4.11,17.49-9.2-7.83-9.2-17.49-9.2Zm-5.56,8.46c-.43,2.21-1.96,1.98-3.83,1.98l.75-3.86c2.08,0,3.49-.22,3.08,1.87h0Zm-6.6,5.89h2.01l.48-2.45c2.25,0,3.64,.16,4.93-1.04,1.43-1.31,1.8-3.64,.78-4.81-.53-.61-1.38-.91-2.54-.91h-3.86l-1.79,9.22Zm10.15-11.67h1.99l-.48,2.45c1.72,0,3.32-.13,4.09,.58,.81,.74,.42,1.69-.45,6.18h-2.02c.84-4.34,1-4.7,.69-5.03-.3-.32-.97-.25-2.59-.25l-1.03,5.28h-1.99l1.79-9.21h0Zm12.12,5.78c-.44,2.25-2.01,1.98-3.83,1.98l.75-3.86c2.09,0,3.49-.22,3.08,1.87h0Zm-6.6,5.89h2.01l.48-2.45c2.36,0,3.67,.14,4.93-1.04,1.43-1.31,1.8-3.64,.78-4.81-.53-.61-1.38-.91-2.54-.91h-3.86l-1.79,9.22Z"/></svg>