<?xml version="1.0" encoding="UTF-8"?><svg id="Capa_1" xmlns="http://www.w3.org/2000/svg" viewBox="0 0 76.06 76.06"><defs><style>.cls-1{fill:#f8f8f8;}.cls-2{fill:#00bde9;}.cls-3{fill:#b1b1b1;}</style></defs><g><circle class="cls-2" cx="38.03" cy="38.03" r="38.03"/><circle class="cls-1" cx="38.03" cy="38.03" r="33.66"/></g><g id="MdEMhv"><g><path class="cls-3" d="M44.62,41.56c-1.25,0-2.2-.34-2.96-1.14-.09-.1-.12-.15,0-.25,.2-.16,.39-.33,.57-.5,.1-.09,.15-.11,.25,.01,.78,.93,1.92,1.11,2.93,.82,.43-.12,.75-.4,.81-.88,.07-.48-.15-.83-.54-1.09-.19-.13-.4-.22-.62-.3-.56-.19-1.14-.33-1.7-.55-.23-.09-.44-.21-.64-.34-1.1-.72-.97-2.44-.08-3.08,.5-.36,1.06-.53,1.67-.57,1.14-.07,2.13,.25,2.9,1.12,.09,.1,.09,.14-.01,.23-.19,.16-.37,.33-.55,.5-.09,.09-.14,.1-.24-.01-.7-.84-1.61-1.03-2.64-.78-.36,.09-.6,.32-.69,.68-.1,.38,.01,.71,.3,.97,.23,.21,.51,.33,.8,.43,.54,.19,1.09,.35,1.62,.56,.35,.14,.67,.32,.94,.58,.92,.87,.74,2.37-.35,3.09-.6,.39-1.27,.48-1.79,.5Z"/><path class="cls-3" d="M29.45,36.13c0-1.73,0-3.46,0-5.19,0-.14,.03-.19,.18-.18,.25,.01,.51,0,.77,0,.11,0,.15,.03,.13,.14,0,.02,0,.05,0,.07,0,3.43,0,6.87,0,10.3,0,.17-.04,.21-.21,.2-.24-.02-.48-.01-.71,0-.13,0-.16-.04-.16-.16,0-1.21,0-2.41,0-3.62,0-.52,0-1.04,0-1.57Z"/><path class="cls-3" d="M50.41,37.55c0,.35,0,.71,0,1.06,0,.9,0,1.8,0,2.7,0,.15-.04,.18-.18,.18-.24-.01-.49-.01-.73,0-.14,0-.16-.04-.16-.16,0-2.01,0-4.03,0-6.04,0-1.44,0-2.89,0-4.33,0-.14,.04-.17,.17-.17,.25,.01,.5,0,.75,0,.12,0,.15,.03,.15,.15,0,1.58,0,3.17,0,4.75,0,.6,0,1.21,0,1.81,.02,.02,.02,.04,0,.06Z"/><path class="cls-3" d="M50.41,37.55s0-.04,0-.06c.09,.03,.12-.06,.16-.1,1.14-1.14,2.27-2.29,3.4-3.44,.1-.1,.19-.14,.33-.14,.4,0,.8,0,1.2,0-.02,.08-.08,.11-.12,.16-1.16,1.14-2.32,2.27-3.49,3.4-.11,.1-.1,.15,0,.25,1.17,1.23,2.33,2.47,3.5,3.71,.03,.04,.07,.07,.13,.14-.5,0-.97,0-1.44,0-.08,0-.11-.07-.16-.12-1.12-1.22-2.23-2.44-3.35-3.66-.05-.05-.09-.12-.17-.14Z"/><path class="cls-2" d="M29.95,45.29c-1.01,0-2.03,0-3.04,0-.15,0-.19-.04-.18-.18,.01-.23,0-.45,0-.68,0-.11,.02-.15,.14-.15,2.05,0,4.11,0,6.16,0,.12,0,.15,.04,.15,.15,0,.24,0,.48,0,.71,0,.13-.04,.15-.16,.15-1.02,0-2.04,0-3.06,0Z"/><path class="cls-3" d="M27.23,36.87c-.34-1.93-1.85-2.93-3.54-3.08-1-.09-1.99,.06-2.95,.33-.15,.04-.2,.1-.2,.25,0,3.57,0,7.13,0,10.7,0,.02,0,.05,0,.07-.02,.11,.02,.15,.14,.15,.25,0,.51-.01,.77,0,.13,0,.16-.04,.16-.16,0-1.19,0-2.39,0-3.58v-.21c.78,.22,1.55,.29,2.33,.18,.8-.12,1.54-.37,2.15-.93,1.11-1.01,1.38-2.3,1.14-3.71Zm-1.41,2.22c-.38,.86-1.08,1.31-1.99,1.48-.73,.14-1.43,.02-2.12-.2-.12-.04-.1-.11-.1-.18,0-.86,0-1.72,0-2.57,0-.85,0-1.7,0-2.56,0-.07-.02-.14,.09-.17,.88-.25,1.77-.33,2.65-.04,.96,.32,1.47,1.05,1.66,2.01,.16,.76,.12,1.52-.2,2.23Z"/><path class="cls-3" d="M39.51,37.64c-.01-.51-.05-1.01-.18-1.5-.24-.92-.7-1.66-1.59-2.08-.6-.28-1.23-.35-1.88-.31-1.16,.08-2.08,.58-2.65,1.62-.6,1.09-.68,2.26-.4,3.46,.26,1.08,.86,1.91,1.89,2.39,.76,.35,1.57,.39,2.38,.28,.81-.1,1.51-.45,2.1-1.03,.08-.08,.08-.13,0-.21-.16-.15-.3-.32-.45-.48-.06-.07-.1-.1-.18-.01-.57,.59-1.27,.84-2.08,.85-.58,0-1.12-.1-1.6-.44-.78-.56-1.05-1.38-1.12-2.29,0-.13,.08-.09,.14-.09,.91,0,1.82,0,2.73,0s1.81,0,2.72,0c.12,0,.16-.02,.16-.15Zm-1.08-.76c-.05,.06-.12,.03-.18,.03-1.42,0-2.84,0-4.27,0-.06,0-.13,.02-.18-.03,.04-1.13,.92-2.07,2.03-2.2,.4-.05,.79-.01,1.17,.1,.86,.24,1.29,.93,1.4,1.72,.02,.12,.05,.25,.03,.38h0s0,0,0,0Z"/></g></g></svg>