<?xml version="1.0" encoding="UTF-8"?><svg id="Capa_1" xmlns="http://www.w3.org/2000/svg" viewBox="0 0 65 15.89"><defs><style>.cls-1{fill:#f8f8f8;}.cls-2{fill:#4c7cc6;}</style></defs><rect class="cls-2" x="12.81" y="6.78" width="40.47" height="2.33"/><g><circle class="cls-2" cx="7.95" cy="7.95" r="7.95"/><path class="cls-1" d="M6.74,6.15v-1.38h2.41v6.36h-1.55V6.15h-.86Z"/></g><g><circle class="cls-2" cx="32.95" cy="7.95" r="7.95"/><path class="cls-1" d="M31.04,9.83c.57-.47,1.02-.86,1.35-1.16,.33-.3,.6-.62,.83-.95,.23-.33,.34-.65,.34-.97,0-.24-.06-.42-.17-.56-.11-.13-.28-.2-.5-.2s-.39,.08-.52,.25c-.12,.17-.19,.4-.19,.7h-1.44c.01-.49,.12-.91,.32-1.24,.2-.33,.46-.57,.79-.73,.33-.16,.69-.24,1.09-.24,.69,0,1.21,.18,1.56,.53,.35,.35,.53,.82,.53,1.38,0,.62-.21,1.2-.64,1.73-.42,.53-.96,1.05-1.62,1.55h2.35v1.21h-4.37v-1.11c.2-.16,.29-.23,.27-.22Z"/></g><g><circle class="cls-2" cx="57.05" cy="7.95" r="7.95"/><path class="cls-1" d="M55.53,5.17c.38-.34,.9-.51,1.56-.51,.44,0,.81,.08,1.12,.23,.31,.15,.55,.36,.71,.62,.16,.26,.24,.55,.24,.88,0,.38-.1,.7-.29,.94-.19,.24-.42,.41-.67,.49v.03c.33,.11,.59,.29,.78,.55,.19,.26,.29,.58,.29,.98,0,.36-.08,.68-.25,.95-.17,.28-.41,.49-.72,.65-.32,.16-.69,.24-1.13,.24-.7,0-1.25-.17-1.67-.51-.42-.34-.63-.86-.66-1.55h1.45c0,.26,.08,.46,.22,.6,.14,.15,.34,.22,.61,.22,.23,0,.4-.07,.53-.2,.12-.13,.19-.3,.19-.52,0-.28-.09-.48-.27-.6-.18-.12-.46-.19-.85-.19h-.28v-1.21h.28c.3,0,.54-.05,.72-.15,.18-.1,.27-.28,.27-.54,0-.21-.06-.37-.17-.49-.12-.12-.28-.17-.48-.17-.22,0-.38,.07-.49,.2-.11,.13-.17,.3-.19,.5h-1.45c.02-.62,.23-1.1,.61-1.44Z"/></g></svg>