<?xml version="1.0" encoding="UTF-8"?><svg id="Capa_1" xmlns="http://www.w3.org/2000/svg" viewBox="0 0 512 512"><path d="M304,48c0-26.5-21.5-48-48-48s-48,21.5-48,48,21.5,48,48,48,48-21.5,48-48Zm0,416c0-26.5-21.5-48-48-48s-48,21.5-48,48,21.5,48,48,48,48-21.5,48-48ZM48,304c26.5,0,48-21.5,48-48s-21.5-48-48-48S0,229.5,0,256s21.5,48,48,48Zm464-48c0-26.5-21.5-48-48-48s-48,21.5-48,48,21.5,48,48,48,48-21.5,48-48ZM142.9,437c18.7-18.7,18.7-49.1,0-67.9s-49.1-18.7-67.9,0-18.7,49.1,0,67.9c18.7,18.8,49.1,18.7,67.9,0Zm0-294.2c18.7-18.7,18.7-49.1,0-67.9s-49.2-18.7-67.9,.1c-18.7,18.8-18.7,49.1,0,67.9,18.7,18.8,49.1,18.7,67.9,0v-.1Zm226.2,294.2c18.7,18.7,49.1,18.7,67.9,0s18.7-49.1,0-67.9-49.1-18.7-67.9,0-18.7,49.1,0,67.9Z"/></svg>