<?xml version="1.0" encoding="UTF-8"?><svg id="Capa_1" xmlns="http://www.w3.org/2000/svg" viewBox="0 0 76.06 76.06"><defs><style>.cls-1{fill:#00cbff;}.cls-2{fill:#001e27;}</style></defs><g><circle class="cls-1" cx="38.03" cy="38.03" r="38.03"/><circle class="cls-2" cx="38.03" cy="38.03" r="33.66"/></g><g><path class="cls-1" d="M20.54,25.06c0-.2,.08-.32,.28-.32,1.52-.04,4.49-.12,7.42-.12,7.78,0,10.67,4.33,10.67,8.74,0,6.38-4.93,9.14-10.99,9.14h-2.53v8.22c0,.2-.08,.32-.32,.32h-4.21c-.2,0-.32-.08-.32-.28V25.06Zm4.85,13.15c.68,.04,1.2,.04,2.53,.04,3.37,0,6.22-1.12,6.22-4.77,0-2.93-2.09-4.65-5.78-4.65-1.4,0-2.53,.04-2.97,.08v9.3Z"/><path class="cls-1" d="M49.06,34.76c-2.13,0-2.85,.88-2.85,1.72s.6,1.48,3.17,2.49c4.57,1.68,6.14,3.49,6.14,6.34,0,3.77-2.97,6.14-7.9,6.14-2.37,0-4.45-.44-5.66-1.12-.2-.12-.28-.2-.28-.44v-3.81c0-.2,.16-.28,.32-.2,1.72,1.12,3.93,1.6,5.74,1.6,2.09,0,3.09-.72,3.09-1.76s-.76-1.64-3.25-2.65c-4.37-1.6-5.94-3.41-5.94-6.3,0-3.05,2.49-5.9,7.5-5.9,2.33,0,4.09,.32,5.05,.8,.2,.12,.24,.28,.24,.48v3.53c0,.2-.12,.32-.36,.24-1.24-.68-3.25-1.16-5.01-1.16Z"/></g></svg>