<?xml version="1.0" encoding="UTF-8"?><svg id="Capa_1" xmlns="http://www.w3.org/2000/svg" viewBox="0 0 76.06 76.06"><defs><style>.cls-1{fill:#f8f8f8;}.cls-2{fill:#db5f9a;}</style></defs><g><circle class="cls-2" cx="38.03" cy="38.03" r="38.03"/><circle class="cls-1" cx="38.03" cy="38.03" r="33.66"/></g><path class="cls-2" d="M37.04,44.75m13.61-4.75c-1.1,0-2.18,.25-3.17,.74-.32-.65-.66-1.22-.71-1.64-.07-.5-.14-.79-.06-1.38s.42-1.43,.42-1.49-.08-.36-.78-.37c-.7,0-1.31,.14-1.38,.32-.12,.34-.22,.69-.29,1.04-.13,.64-1.41,2.92-2.14,4.11-.24-.46-.44-.87-.49-1.2-.07-.5-.14-.79-.06-1.38s.42-1.43,.42-1.49-.08-.36-.78-.37c-.7,0-1.31,.14-1.38,.32s-.15,.62-.29,1.04-1.85,4.22-2.3,5.21c-.23,.5-.43,.91-.57,1.18-.02,.04-.04,.07-.05,.09,.02-.03,.03-.05,.03-.04-.12,.23-.19,.37-.19,.37h0c-.09,.18-.2,.34-.25,.34-.03,0-.1-.46,.02-1.09,.26-1.32,.86-3.38,.86-3.45,0-.04,.11-.39-.4-.58-.5-.18-.68,.12-.72,.12s-.08,.11-.08,.11c0,0,.55-2.32-1.06-2.32-1.01,0-2.4,1.1-3.09,2.1-.43,.23-1.37,.74-2.35,1.28-.38,.21-.76,.42-1.13,.62-.03-.03-.05-.05-.08-.08-1.96-2.09-5.57-3.56-5.41-6.37,.05-1.02,.41-3.7,6.94-6.96,5.35-2.67,9.64-1.93,10.37-.31,1.06,2.32-2.29,6.64-7.85,7.27-2.12,.23-3.23-.58-3.51-.89-.29-.32-.33-.34-.44-.28-.18,.1-.07,.38,0,.55,.16,.43,.85,1.2,2.01,1.58,1.02,.33,3.51,.52,6.51-.64,3.38-1.3,6-4.92,5.23-7.96-.78-3.08-5.89-4.09-10.73-2.38-2.88,1.02-5.99,2.63-8.23,4.72-2.66,2.49-3.09,4.66-2.91,5.57,.62,3.22,5.06,5.32,6.83,6.87-.09,.05-.17,.09-.25,.14-.89,.44-4.27,2.21-5.12,4.08-.96,2.12,.16,3.64,.89,3.85,2.28,.63,4.62-.51,5.88-2.38s1.1-4.32,.52-5.44c0-.02-.02-.03-.02-.04,.23-.14,.46-.27,.7-.41,.45-.27,.9-.51,1.28-.73-.22,.59-.38,1.3-.46,2.33-.1,1.2,.4,2.76,1.04,3.37,.28,.27,.63,.27,.84,.27,.75,0,1.09-.62,1.47-1.37,.46-.91,.87-1.96,.87-1.96,0,0-.51,2.85,.89,2.85,.51,0,1.03-.66,1.26-1h0s.01-.02,.04-.06c.05-.08,.08-.13,.08-.13v-.02c.21-.36,.66-1.17,1.34-2.51,.89-1.74,1.73-3.91,1.73-3.91,.08,.48,.19,.95,.34,1.41,.15,.52,.48,1.09,.73,1.64-.21,.28-.33,.45-.33,.45,0,0,0,0,0,.01-.16,.22-.35,.45-.54,.68-.7,.83-1.53,1.78-1.64,2.05-.13,.32-.1,.56,.15,.75,.19,.14,.51,.16,.86,.14,.63-.04,1.07-.2,1.28-.3,.39-.14,.76-.34,1.1-.58,.68-.5,1.1-1.22,1.06-2.17-.02-.52-.19-1.05-.4-1.54,.06-.09,.13-.18,.19-.27,1.08-1.58,1.92-3.31,1.92-3.31,.08,.48,.19,.95,.34,1.41,.13,.44,.39,.93,.62,1.4-1.02,.83-1.64,1.78-1.86,2.41-.4,1.16-.09,1.69,.51,1.81,.27,.05,.65-.07,.93-.19,.42-.14,.82-.35,1.18-.61,.68-.5,1.34-1.21,1.3-2.16-.02-.43-.14-.86-.3-1.28,.86-.36,1.97-.56,3.39-.39,3.04,.36,3.64,2.26,3.52,3.05s-.75,1.23-.97,1.37-.28,.18-.26,.28c.03,.14,.13,.14,.31,.1,.25-.04,1.59-.64,1.66-2.11,.09-1.86-1.7-3.9-4.86-3.89h0Zm-23.45,7.91c-1,1.1-2.41,1.51-3.02,1.16-.65-.38-.39-1.99,.85-3.16,.75-.71,1.73-1.37,2.37-1.77,.15-.09,.36-.22,.62-.38,.04-.03,.07-.04,.07-.04,.05-.03,.1-.06,.16-.09,.45,1.66,.02,3.13-1.04,4.28h0Zm7.34-4.99c-.35,.86-1.09,3.04-1.53,2.93-.38-.1-.62-1.76-.08-3.4,.27-.83,.85-1.81,1.2-2.19,.55-.62,1.16-.81,1.3-.57,.19,.32-.67,2.7-.89,3.23h0Zm6.07,2.9c-.15,.08-.28,.13-.35,.09-.05-.03,.06-.13,.06-.13,0,0,.76-.81,1.06-1.19,.17-.22,.38-.48,.6-.76,0,.03,0,.05,0,.09,0,.98-.95,1.64-1.37,1.9h0Zm4.68-1.07c-.11-.08-.09-.33,.27-1.13,.14-.31,.47-.84,1.04-1.34,.06,.19,.1,.39,.1,.59,0,1.23-.89,1.69-1.41,1.88h0Z"/></svg>