<?xml version="1.0" encoding="UTF-8"?><svg id="Capa_1" xmlns="http://www.w3.org/2000/svg" viewBox="0 0 76 77"><defs><style>.cls-1{fill:#577bc1;}</style></defs><path class="cls-1" d="M38,77C17.05,77,0,59.73,0,38.5S17.05,0,38,0s38,17.27,38,38.5-17.05,38.5-38,38.5Zm0-74C18.7,3,3,18.93,3,38.5s15.7,35.5,35,35.5,35-15.93,35-35.5S57.3,3,38,3Z"/><g><path class="cls-1" d="M38,25.5c-7.18,0-13,5.82-13,13s5.82,13,13,13,13-5.82,13-13-5.82-13-13-13Zm0,24c-6.07,0-11-4.92-11-11s4.93-11,11-11,11,4.92,11,11-4.92,11-11,11Z"/><g><polygon class="cls-1" points="36.57 21.5 39.43 21.5 38 13.6 36.57 21.5"/><polygon class="cls-1" points="36.57 55.5 39.43 55.5 38 63.4 36.57 55.5"/></g><g><polygon class="cls-1" points="55 39.93 55 37.07 62.9 38.5 55 39.93"/><polygon class="cls-1" points="21 39.93 21 37.07 13.1 38.5 21 39.93"/></g><g><polygon class="cls-1" points="49.01 51.53 51.03 49.51 55.6 56.1 49.01 51.53"/><polygon class="cls-1" points="24.97 27.49 26.99 25.47 20.4 20.9 24.97 27.49"/></g><g><polygon class="cls-1" points="25.98 50.61 28.17 52.44 22 57.57 25.98 50.61"/><polygon class="cls-1" points="47.84 24.56 50.02 26.39 54 19.43 47.84 24.56"/></g></g></svg>