<?xml version="1.0" encoding="UTF-8"?><svg id="Capa_1" xmlns="http://www.w3.org/2000/svg" xmlns:xlink="http://www.w3.org/1999/xlink" viewBox="0 0 76.06 76.06"><defs><style>.cls-1{fill:#f8f8f8;}.cls-2{fill:url(#Degradado_sin_nombre_9-2);}.cls-3{fill:url(#Degradado_sin_nombre_9);}</style><linearGradient id="Degradado_sin_nombre_9" x1="0" y1="38.03" x2="76.06" y2="38.03" gradientUnits="userSpaceOnUse"><stop offset="0" stop-color="#00a8b4"/><stop offset="1" stop-color="#00b5b4"/></linearGradient><linearGradient id="Degradado_sin_nombre_9-2" x1="20.54" x2="55.52" xlink:href="#Degradado_sin_nombre_9"/></defs><g><circle class="cls-3" cx="38.03" cy="38.03" r="38.03"/><circle class="cls-1" cx="38.03" cy="38.03" r="33.66"/></g><path class="cls-2" d="M49.4,33.68c-1.31-.45-2.47-1.26-3.34-2.34-1.95-2.44-4.91-3.84-8.03-3.79-4.29-.3-8.1,2.74-8.74,6.99,1.26-2.1,3.73-3.16,6.12-2.61,1.31,.46,2.46,1.28,3.34,2.36,1.96,2.42,4.92,3.8,8.03,3.74,4.29,.3,8.1-2.74,8.74-6.99-1.24,2.13-3.72,3.2-6.12,2.64Zm-22.73,8.71c1.31,.45,2.47,1.26,3.34,2.34,1.95,2.44,4.91,3.84,8.03,3.79,4.29,.3,8.1-2.74,8.74-6.99-1.26,2.1-3.73,3.16-6.12,2.61-1.31-.46-2.46-1.28-3.34-2.36-1.96-2.41-4.92-3.79-8.03-3.74-4.29-.3-8.1,2.74-8.74,6.99,1.24-2.13,3.72-3.2,6.12-2.64Z"/></svg>