<?xml version="1.0" encoding="UTF-8"?><svg id="Capa_1" xmlns="http://www.w3.org/2000/svg" viewBox="0 0 512 448"><path d="M176,56v40h160V56c0-4.4-3.6-8-8-8H184c-4.4,0-8,3.6-8,8Zm-48,40V56c0-30.9,25.1-56,56-56h144c30.9,0,56,25.1,56,56v40h28.1c12.7,0,24.9,5.1,33.9,14.1l51.9,51.9c9,9,14.1,21.2,14.1,33.9v76.1h-128v-16c0-17.7-14.3-32-32-32s-32,14.3-32,32v16H192v-16c0-17.7-14.3-32-32-32s-32,14.3-32,32v16H0v-76.1c0-12.7,5.1-24.9,14.1-33.9l51.9-51.9c9-9,21.2-14.1,33.9-14.1h28.1ZM0,384v-80H128v16c0,17.7,14.3,32,32,32s32-14.3,32-32v-16h128v16c0,17.7,14.3,32,32,32s32-14.3,32-32v-16h128v80c0,35.3-28.7,64-64,64H64C28.7,448,0,419.3,0,384Z"/></svg>