<?xml version="1.0" encoding="UTF-8"?><svg id="Capa_1" xmlns="http://www.w3.org/2000/svg" viewBox="0 0 512.03 512.01"><defs><style>.cls-1{fill:#577bc1;}</style></defs><path class="cls-1" d="M78.63,5.01c-9.5-7.4-23-6.5-31.6,2L7.03,47.01c-8.5,8.5-9.4,22-2.1,31.6l80,104c4.5,5.9,11.6,9.4,19,9.4h54.1l109,109c-14.7,29-10,65.4,14.3,89.6l112,112c12.5,12.5,32.8,12.5,45.3,0l64-64c12.5-12.5,12.5-32.8,0-45.3l-112-112c-24.2-24.2-60.6-29-89.6-14.3l-109-109v-54c0-7.5-3.5-14.5-9.4-19L78.63,5.01ZM19.93,396.11C7.23,408.81,.03,426.11,.03,444.11c0,37.5,30.4,67.9,67.9,67.9,18,0,35.3-7.2,48-19.9l117.8-117.8c-7.8-20.9-9-43.6-3.6-65.1l-61.7-61.7L19.93,396.11Zm492.1-252.1c0-10.5-1.1-20.7-3.2-30.5-2.4-11.2-16.1-14.1-24.2-6l-63.9,63.9c-3,3-7.1,4.7-11.3,4.7h-57.4c-8.8,0-16-7.2-16-16v-57.5c0-4.2,1.7-8.3,4.7-11.3l63.9-63.9c8.1-8.1,5.2-21.8-6-24.2C388.73,1.11,378.53,.01,368.03,.01,288.53,.01,224.03,64.51,224.03,144.01v.8l85.3,85.3c36-9.1,75.8,.5,104,28.7l15.7,15.7c49-23,83-72.8,83-130.5ZM56.03,432.01c0-13.25,10.75-24,24-24s24,10.75,24,24-10.75,24-24,24-24-10.75-24-24Z"/></svg>