<?xml version="1.0" encoding="UTF-8"?><svg id="Capa_1" xmlns="http://www.w3.org/2000/svg" viewBox="0 0 306 306"><defs><style>.cls-1{fill:#00ade6;}.cls-2{fill:#0073c1;}.cls-3{fill:#fff;}.cls-4{fill:#ff0;}.cls-5{fill:#f1f1f1;}.cls-6{fill:#e4e8ec;}.cls-7{fill:#333;}.cls-8{fill:#4c7cc6;}</style></defs><g><path class="cls-8" d="M153,306c-40.87,0-79.29-15.91-108.19-44.81C15.91,232.29,0,193.87,0,153S15.91,73.71,44.81,44.81C73.71,15.91,112.13,0,153,0s79.29,15.91,108.19,44.81c28.9,28.9,44.81,67.32,44.81,108.19s-15.91,79.29-44.81,108.19c-28.9,28.9-67.32,44.81-108.19,44.81Zm0-294.77c-37.87,0-73.47,14.75-100.25,41.52C25.98,79.53,11.23,115.13,11.23,153s14.75,73.47,41.52,100.25c26.78,26.78,62.38,41.52,100.25,41.52s73.47-14.75,100.25-41.52c26.78-26.78,41.52-62.38,41.52-100.25s-14.75-73.47-41.52-100.25c-26.78-26.78-62.38-41.52-100.25-41.52Z"/><path class="cls-6" d="M153,303.43c-40.18,0-77.96-15.65-106.37-44.06C18.22,230.96,2.57,193.18,2.57,153S18.22,75.04,46.63,46.63C75.04,18.22,112.82,2.57,153,2.57s77.96,15.65,106.37,44.06c28.41,28.41,44.06,66.19,44.06,106.37s-15.65,77.96-44.06,106.37c-28.41,28.41-66.19,44.06-106.37,44.06Zm0-294.77c-38.56,0-74.8,15.01-102.07,42.28C23.67,78.2,8.66,114.44,8.66,153s15.01,74.8,42.28,102.07c27.26,27.26,63.51,42.28,102.07,42.28s74.8-15.01,102.07-42.28c27.26-27.26,42.28-63.51,42.28-102.07s-15.01-74.8-42.28-102.07c-27.26-27.26-63.51-42.28-102.07-42.28Z"/><circle class="cls-8" cx="153" cy="153" r="147.39"/></g><g><g><g><path class="cls-6" d="M183.75,48.21v8.65c0,.86,.21,1.53,.64,2,.42,.47,1.05,.7,1.87,.7s1.45-.23,1.89-.7c.44-.47,.66-1.13,.66-2v-8.65h3.52v8.63c0,1.29-.27,2.38-.82,3.27-.55,.89-1.29,1.56-2.21,2.02-.93,.45-1.96,.68-3.1,.68s-2.16-.22-3.06-.67c-.9-.45-1.61-1.12-2.13-2.02s-.78-1.99-.78-3.28v-8.63h3.52Z"/><path class="cls-6" d="M198.33,48.21v14.45h-3.52v-14.45h3.52Z"/></g><g><path class="cls-6" d="M111.19,48.21v8.65c0,.86,.21,1.53,.64,2,.43,.47,1.05,.7,1.87,.7s1.45-.23,1.89-.7c.44-.47,.66-1.13,.66-2v-8.65h3.52v8.63c0,1.29-.27,2.38-.82,3.27-.55,.89-1.29,1.56-2.21,2.02-.93,.45-1.96,.68-3.1,.68s-2.16-.22-3.06-.67c-.9-.45-1.61-1.12-2.13-2.02-.52-.9-.78-1.99-.78-3.28v-8.63h3.52Z"/><path class="cls-6" d="M131.1,62.67l-2.94-4.43-2.59,4.43h-3.99l4.63-7.35-4.73-7.1h4.1l2.9,4.36,2.55-4.36h3.99l-4.59,7.29,4.78,7.16h-4.1Z"/></g></g><g><g><g><g><path class="cls-6" d="M152.7,90.22H76.99c-4.64,0-8.4,3.76-8.4,8.4v101.96c0,4.64,3.76,8.4,8.4,8.4h75.71"/><path d="M152.7,209.57H76.99c-4.96,0-8.99-4.03-8.99-8.99V98.63c0-4.96,4.03-8.99,8.99-8.99h75.71v1.17H76.99c-4.31,0-7.82,3.51-7.82,7.82v101.95c0,4.31,3.51,7.82,7.82,7.82h75.71v1.17Z"/></g><polygon points="152.7 199.28 77.62 199.28 77.62 99.93 152.7 99.93 152.7 101.49 79.18 101.49 79.18 197.72 152.7 197.72 152.7 199.28"/><g><polyline class="cls-6" points="120.96 234.08 120.96 209.05 152.7 209.05 152.7 234.08 120.96 234.08"/><path d="M153.29,234.67h-32.92v-26.21h32.92v26.21Zm-31.74-1.17h30.57v-23.86h-30.57v23.86Z"/></g><g><path class="cls-6" d="M152.7,242.1h-37.15c-1.32,0-2.4-1.08-2.4-2.4v-3.2c0-1.32,1.08-2.4,2.4-2.4h37.15v8.01Z"/><path d="M153.29,242.68h-37.74c-1.65,0-2.99-1.34-2.99-2.99v-3.2c0-1.65,1.34-2.99,2.99-2.99h37.74v9.18Zm-37.74-8.01c-1,0-1.82,.82-1.82,1.82v3.2c0,1,.82,1.82,1.82,1.82h36.57v-6.84h-36.57Z"/></g></g><g><g><path class="cls-7" d="M153.1,208.99h75.71c4.64,0,8.4-3.76,8.4-8.4V98.63c0-4.64-3.76-8.4-8.4-8.4h-75.71v10.49h74.3v97.79h-74.3v10.55"/><path class="cls-7" d="M228.81,209.77h-75.71v-.72h-.78v-11.33h74.3V101.49h-74.3v-12.05h76.49c5.06,0,9.19,4.12,9.19,9.19v101.95c0,5.06-4.12,9.19-9.19,9.19Zm-74.93-1.56h74.93c4.2,0,7.62-3.42,7.62-7.62V98.63c0-4.2-3.42-7.62-7.62-7.62h-74.93v8.93h74.3v99.35h-74.3v8.93Z"/></g><g><polyline class="cls-5" points="184.85 234.08 184.85 209.05 153.1 209.05 153.1 234.08 184.85 234.08"/><path class="cls-7" d="M185.63,234.87h-33.31v-26.6h33.31v26.6Zm-31.74-1.56h30.18v-23.47h-30.18v23.47Z"/></g><g><path class="cls-7" d="M184.85,234.08h5.41c1.32,0,2.4,1.08,2.4,2.4v3.2c0,1.32-1.08,2.4-2.4,2.4h-37.15v-8.01h31.74Z"/><path class="cls-7" d="M190.25,242.88h-37.93v-9.57h37.93c1.76,0,3.18,1.43,3.18,3.18v3.2c0,1.76-1.43,3.18-3.18,3.18Zm-36.37-1.56h36.37c.89,0,1.62-.73,1.62-1.62v-3.2c0-.89-.73-1.62-1.62-1.62h-36.37v6.45Z"/></g><g><rect class="cls-5" x="153.13" y="100.74" width="74.3" height="97.74"/><path class="cls-5" d="M228.21,199.25h-75.86V99.96h75.86v99.3Zm-74.3-1.56h72.74V101.52h-72.74v96.17Z"/></g></g><path d="M152.91,114.23h-55.85v-8.1h55.85v8.1Zm-55.46-.39h55.07v-7.32h-55.07v7.32Z"/><path d="M88.84,114.25c-2.26,0-4.1-1.84-4.1-4.1s1.84-4.1,4.1-4.1,4.1,1.84,4.1,4.1-1.84,4.1-4.1,4.1Zm0-7.81c-2.05,0-3.71,1.66-3.71,3.71s1.66,3.71,3.71,3.71,3.71-1.66,3.71-3.71-1.66-3.71-3.71-3.71Z"/><rect class="cls-2" x="153.03" y="106.24" width="57.68" height="7.81"/><rect class="cls-3" x="157.14" y="109.55" width="10.41" height="1.4"/><rect class="cls-3" x="169.35" y="109.55" width="10.41" height="1.4"/><rect class="cls-3" x="181.57" y="109.55" width="10.41" height="1.4"/><rect class="cls-3" x="193.79" y="109.55" width="10.41" height="1.4"/><path d="M152.91,157.41h-55.74v-34.84h55.74v34.84Zm-55.35-.39h54.96v-34.06h-54.96v34.06Z"/><rect x="125.05" y="102.19" width=".39" height="58.17" transform="translate(-37.23 212.04) rotate(-72.78)"/><rect x="96.16" y="148.31" width="58.17" height=".39" transform="translate(-38.44 43.87) rotate(-17.27)"/><rect class="cls-2" x="152.83" y="122.67" width="57.88" height="34.45"/><circle class="cls-4" cx="204.4" cy="129.78" r="3.2"/><path class="cls-1" d="M152.7,137.08s6.64-5.51,21.86,0c15.22,5.51,36.15,0,36.15,0v20.03h-57.88l-.13-20.03Z"/><path d="M117.58,183.75h-19.82v-19.82h19.82v19.82Zm-19.43-.39h19.04v-19.04h-19.04v19.04Z"/><path d="M144.21,183.75h-19.82v-19.82h19.82v19.82Zm-19.43-.39h19.04v-19.04h-19.04v19.04Z"/><rect x="97.95" y="187.26" width="19.43" height=".39"/><rect x="97.95" y="188.66" width="19.43" height=".39"/><rect x="97.95" y="190.07" width="19.43" height=".39"/><rect x="97.95" y="191.47" width="19.43" height=".39"/><rect x="124.53" y="187.38" width="19.43" height=".39"/><rect x="124.53" y="188.78" width="19.43" height=".39"/><rect x="124.53" y="190.18" width="19.43" height=".39"/><rect x="124.53" y="191.58" width="19.43" height=".39"/><rect x="107.47" y="160.1" width=".39" height="27.47" transform="translate(-91.39 127.05) rotate(-45)"/><rect x="93.93" y="173.64" width="27.47" height=".39" transform="translate(-91.39 127.05) rotate(-45)"/><rect x="134.11" y="160.1" width=".39" height="27.47" transform="translate(-83.59 145.89) rotate(-45)"/><rect x="120.57" y="173.64" width="27.47" height=".39" transform="translate(-83.59 145.88) rotate(-45)"/><rect class="cls-2" x="164.64" y="164.05" width="19.43" height="19.43"/><rect class="cls-2" x="191.27" y="164.05" width="19.43" height="19.43"/><rect class="cls-2" x="164.64" y="186.99" width="19.43" height=".78"/><rect class="cls-2" x="164.64" y="188.39" width="19.43" height=".78"/><rect class="cls-2" x="164.64" y="189.8" width="19.43" height=".78"/><rect class="cls-2" x="164.64" y="191.2" width="19.43" height=".78"/><rect class="cls-2" x="191.22" y="187.11" width="19.43" height=".78"/><rect class="cls-2" x="191.22" y="188.51" width="19.43" height=".78"/><rect class="cls-2" x="191.22" y="189.91" width="19.43" height=".78"/><rect class="cls-2" x="191.22" y="191.31" width="19.43" height=".78"/><circle class="cls-4" cx="207.71" cy="167.53" r="2.1"/><path class="cls-1" d="M164.64,174.49s5.57-1.46,10.45,0c4.88,1.46,8.98-.21,8.98-.21v9.21h-19.43v-8.99Z"/><path class="cls-1" d="M191.25,174.57s5.57-1.46,10.45,0,8.98-.21,8.98-.21v9.21h-19.43v-8.99Z"/><circle class="cls-4" cx="181.27" cy="167.53" r="2.1"/></g><rect class="cls-7" x="151.4" y="74.53" width="3" height="183.25"/></g></g></svg>