<?xml version="1.0" encoding="UTF-8"?><svg id="Capa_1" xmlns="http://www.w3.org/2000/svg" viewBox="0 0 179 179"><defs><style>.cls-1{fill:#44acfe;}</style></defs><path class="cls-1" d="M167.16,89.5l11.84-17.32-18.77-11.55,4.33-21.65-20.21-4.33-4.33-20.21-21.01,4.33L106.93,0l-17.43,11.97L72.18,0l-12.99,18.77-20.93-5.05-2.89,21.65-21.65,2.89,4.33,21.65L0,72.25l11.72,17.25L0,106.82l18.77,11.55-4.33,21.65,20.21,4.33,4.33,20.21,21.65-2.89,11.5,17.32,17.37-12.08,17.32,12.08,12.27-18.12,20.93,3.68,4.33-20.21,20.21-4.33-4.33-20.21,18.77-12.99-11.84-17.32Zm-89.21,31.04l-28.87-28.87,10.1-10.1,18.77,18.77,41.86-41.86,10.1,10.1-51.97,51.97Z"/></svg>