<?xml version="1.0" encoding="UTF-8"?><svg id="Capa_1" xmlns="http://www.w3.org/2000/svg" viewBox="0 0 91 91.43"><defs><style>.cls-1{fill:#577bc1;fill-rule:evenodd;}</style></defs><path class="cls-1" d="M77.74,13.29C69.26,4.76,57.72-.03,45.69,0,20.72,0,.39,20.32,.38,45.31c0,7.98,2.08,15.78,6.05,22.65L0,91.43l24.02-6.3c6.64,3.62,14.09,5.51,21.65,5.52h.02c24.97,0,45.3-20.32,45.31-45.31,.03-12.02-4.74-23.56-13.26-32.05M45.69,83h-.02c-6.75,0-13.37-1.81-19.17-5.25l-1.37-.82-14.25,3.74,3.8-13.89-.89-1.42c-3.77-6-5.77-12.95-5.76-20.04,.01-20.76,16.9-37.66,37.68-37.66,9.99-.02,19.58,3.95,26.62,11.04,7.08,7.05,11.05,16.65,11.02,26.64-.01,20.76-16.9,37.66-37.66,37.66m20.66-28.21c-1.14-.57-6.7-3.31-7.74-3.68-1.03-.38-1.79-.57-2.54,.57s-2.93,3.68-3.59,4.44c-.66,.76-1.32,.85-2.45,.28-1.13-.57-4.78-1.76-9.11-5.62-3.37-3-5.64-6.71-6.3-7.84-.66-1.14-.07-1.75,.5-2.31,.51-.5,1.13-1.32,1.7-1.98s.75-1.13,1.13-1.89c.38-.76,.19-1.42-.1-1.98-.28-.57-2.55-6.14-3.49-8.41-.91-2.2-1.85-1.9-2.54-1.93-.72-.03-1.44-.04-2.17-.04-1.16,.03-2.26,.54-3.02,1.41-1.04,1.14-3.96,3.87-3.96,9.44s4.06,10.96,4.62,11.71c.57,.76,7.98,12.19,19.34,17.09,2.71,1.17,4.81,1.86,6.46,2.39,2.71,.86,5.18,.74,7.13,.45,2.18-.32,6.7-2.74,7.64-5.38,.94-2.64,.94-4.91,.66-5.39-.28-.47-1.04-.76-2.17-1.33"/></svg>