<?xml version="1.0" encoding="UTF-8"?><svg id="Capa_1" xmlns="http://www.w3.org/2000/svg" viewBox="0 0 76.06 76.06"><defs><style>.cls-1{fill:#ff51fc;}.cls-2{fill:#4d0039;}</style></defs><g><circle class="cls-1" cx="38.03" cy="38.03" r="38.03"/><circle class="cls-2" cx="38.03" cy="38.03" r="33.66"/></g><g><path class="cls-1" d="M32.76,38.47l6.84,11.11c.14,.17,.03,.3-.14,.34h-4.16c-.27,0-.41-.07-.51-.27-1.63-2.78-3.28-5.59-4.94-8.5h-.03c-1.52,2.84-3.11,5.72-4.71,8.5-.1,.2-.2,.27-.41,.27h-3.96c-.24,0-.24-.2-.14-.34l6.64-10.83-6.5-10.77c-.1-.17,0-.3,.17-.3h4.13c.2,0,.3,.03,.41,.24,1.49,2.81,3.18,5.59,4.71,8.4h.03c1.49-2.81,3.08-5.59,4.64-8.36,.07-.17,.17-.27,.41-.27h3.79c.2,0,.24,.14,.14,.34l-6.4,10.46Z"/><path class="cls-1" d="M40.25,41.72c0-4.91,3.66-8.84,9.62-8.84,.47,0,.88,.03,1.46,.1v-6.94c0-.17,.07-.24,.2-.24h3.69c.17,0,.17,.07,.17,.2v20.45c0,.68,.07,1.56,.14,2.17,0,.17-.03,.24-.2,.3-2.2,.95-4.37,1.32-6.4,1.32-4.91,0-8.67-2.84-8.67-8.53Zm11.07-5.18c-.44-.17-.98-.24-1.59-.24-3.01,0-5.28,1.93-5.28,5.21,0,3.69,2.2,5.21,4.91,5.21,.68,0,1.35-.07,1.96-.27v-9.92Z"/></g></svg>