<?xml version="1.0" encoding="UTF-8"?><svg id="Capa_1" xmlns="http://www.w3.org/2000/svg" viewBox="0 0 197.3 53.65"><defs><style>.cls-1{fill:#9f9f9f;}.cls-2{fill:#252b49;}.cls-3{fill:#202644;}.cls-4{fill:#1d223f;}.cls-5{fill:#2a304d;}</style></defs><g><g><path class="cls-5" d="M13.28,0c.39,1.3,.68,2.74-.84,3.39C7.92,5.33,4.02,8.23,0,11.08,.97,4.99,6.39,3.21,10.28,0h3Z"/><path class="cls-3" d="M2.05,24.99c-2.89-3.99-2.49-7.21,.37-10.18C8.17,8.84,15.38,5.85,23.47,4.7c1.98-.28,4.18,.4,4.44,2.11,.3,1.93-1.86,2.81-3.75,3.13-4.78,.81-9.25,2.45-13.42,4.93-3.9,2.32-7.33,5.06-8.69,10.12Z"/><path class="cls-3" d="M10.4,32.58c-5.8-3.14-6.27-5.45-2.27-9.68,3.88-4.1,8.9-6.2,14.19-7.73,1.95-.56,4.19,.13,4.7,1.73,.62,1.96-1.59,3-3.28,3.48-3.54,1.01-6.88,2.4-9.79,4.65-2.29,1.77-4.22,3.79-3.55,7.56Z"/><path class="cls-2" d="M18.63,34.46c-1.57-.42-3.09-.27-3.59-1.87-.45-1.42,.09-2.68,1.13-3.54,1.38-1.15,2.88-2.2,4.46-3.06,1.77-.97,4.25-1.92,5.32,.17,1.07,2.12-1.71,2.54-3.08,3.45-1.07,.71-2.82,1.27-2.25,2.79,1.25,3.32-1.53,1.37-1.98,2.06Z"/></g><g><path class="cls-4" d="M52.61,27.67c0,4.39-3.83,6.61-7.89,6.61-3.14,0-6.4-1.25-8.1-3.95l4.27-2.9c.93,1.29,2.3,2.01,3.87,2.01,1.25,0,2.42-.4,2.42-1.37,0-2.78-9.79-2.21-9.79-8.98,0-3.26,2.7-6.21,7.41-6.21,2.9,0,5.72,1.29,7.49,3.79l-4.15,2.7c-.85-1.05-2.14-1.65-3.34-1.65-1.37,0-1.93,.44-1.93,1.21,0,2.78,9.75,1.93,9.75,8.74Z"/><path class="cls-4" d="M68.61,33.39c-1.53,.6-3.1,.89-4.96,.89-4.23,0-6.08-3.14-6.08-6.73v-10.03h-2.18v-4.31h2.34v-5.03l5.48-2.46v7.49h4.15v4.31h-3.99v9.22c0,1.77,.72,2.54,2.13,2.54,.48,0,1.21-.16,1.89-.48l1.21,4.59Z"/><path class="cls-4" d="M77.04,24.93c0,2.62,2.05,4.51,4.67,4.51,.93,0,1.81-.16,2.58-.52,.77-.36,1.45-.89,1.97-1.57l3.91,2.94c-2.09,2.78-5,3.99-8.74,3.99-6.28,0-10.11-4.51-10.11-10.68s3.87-10.72,10.19-10.72c5.92,0,9.55,4.15,9.55,9.71,0,.77-.12,1.65-.32,2.34h-13.69Zm8.34-3.91c-.32-1.93-1.81-3.3-3.99-3.3s-3.71,1.37-4.11,3.3h8.1Z"/><path class="cls-4" d="M102.19,10.67v2.54h4.07v4.27h-4.07v16.39h-5.8V10.43c0-4.19,2.22-6.97,6.65-6.97,1.89,0,3.63,.48,5.44,1.61l-2.17,4.23c-.93-.52-1.57-.72-2.14-.72-1.29,0-1.97,.69-1.97,2.1Z"/><path class="cls-4" d="M122.2,34.46c-.08-.91-.15-1.81-.23-2.72-1.37,1.73-3.75,2.54-5.92,2.54-3.99,0-7.21-2.1-7.21-6.24,0-3.22,1.77-5.23,4.59-6.16,1.65-.56,3.62-.69,5.84-.69h1.77v-.24c0-2.01-1.05-3.22-3.46-3.22-1.53,0-2.98,.65-4.07,1.77l-3.67-3.1c2.05-2.38,5.03-3.51,8.22-3.51,5.44,0,8.66,2.74,8.66,8.1v4.23c.16,3.08,.32,6.16,.48,9.24h-5Zm-1.07-9.65h-2.09c-3.42,0-4.63,1.01-4.63,2.82,0,1.33,.93,2.18,2.86,2.18,2.34,0,3.87-1.33,3.87-3.47v-1.53Z"/><path class="cls-4" d="M136.93,13.21l.77,2.42c1.41-1.81,3.34-2.74,5.92-2.74,2.3,0,3.99,.65,5.32,1.9,1.81,1.73,2.17,3.91,2.17,7.05v12.04h-5.84v-11.68c0-1.57-.08-2.62-.56-3.3-.52-.8-1.45-1.17-2.58-1.17-1.77,0-3.1,1.01-3.75,2.58-.32,.85-.4,1.89-.4,2.82v10.75h-5.8V13.21h4.75Z"/><path class="cls-4" d="M162.11,13.21v20.66h-5.76V13.21h5.76Z"/><path class="cls-4" d="M172.11,13.21l.77,2.42c1.41-1.81,3.34-2.74,5.92-2.74,2.3,0,3.99,.65,5.32,1.9,1.81,1.73,2.17,3.91,2.17,7.05v12.04h-5.84v-11.68c0-1.57-.08-2.62-.56-3.3-.52-.8-1.45-1.17-2.58-1.17-1.77,0-3.1,1.01-3.75,2.58-.32,.85-.4,1.89-.4,2.82v10.75h-5.8V13.21h4.75Z"/><path class="cls-4" d="M197.3,13.21v20.66h-5.76V13.21h5.76Z"/></g></g><g><path class="cls-1" d="M145.71,46.88h4.71v4.58c-1.02,1.44-2.75,2.19-4.76,2.19-3.94,0-5.84-2.72-5.84-6.11s2.05-6.23,5.8-6.23c1.88,0,3.5,.82,4.53,2.3l-2.11,1.1c-.65-.88-1.46-1.2-2.41-1.2-2.15,0-3.19,2-3.19,4.02s.94,3.91,3.29,3.91c1.02,0,1.93-.32,2.45-1.02v-1.49h-2.47v-2.05Z"/><path class="cls-1" d="M159,53.49l-1.41-3.79c-.54,.05-1.06,.05-1.61,.05h-.8v3.75h-2.48v-12.02h4.33c2.9,0,4.54,1.39,4.54,4.1,0,1.36-.62,2.67-1.73,3.42l1.66,4.5h-2.5Zm-2.28-5.86c1.56,0,2.31-.51,2.31-2.05s-.81-1.97-2.38-1.97h-1.48v4.02h1.54Z"/><path class="cls-1" d="M168.84,53.65c-3.77,0-5.8-2.91-5.8-6.13s2.06-6.21,5.8-6.21,5.82,3.03,5.82,6.21-2.06,6.13-5.82,6.13Zm3.2-6.16c0-2.02-1.07-3.97-3.2-3.97s-3.19,1.97-3.19,3.97,1.06,3.95,3.19,3.95,3.2-1.92,3.2-3.95Z"/><path class="cls-1" d="M186.11,41.47v7.41c0,.91-.1,1.76-.4,2.48-.64,1.44-2.1,2.29-4.36,2.29s-3.71-.85-4.33-2.29c-.3-.72-.39-1.55-.39-2.48v-7.41h2.48v7.07c0,.74,.05,1.44,.3,1.92,.34,.61,1.01,.98,1.95,.98s1.59-.37,1.95-.99c.27-.48,.3-1.15,.3-1.91v-7.07h2.5Z"/><path class="cls-1" d="M188.43,41.47h4.29c2.87,0,4.58,1.3,4.58,4.1s-1.83,4.18-4.58,4.18h-1.81v3.75h-2.48v-12.02Zm4.01,6.16c.79,0,1.38-.13,1.76-.45s.57-.83,.57-1.58-.15-1.15-.49-1.47c-.4-.37-.97-.51-1.84-.51h-1.53v4.02h1.53Z"/></g></svg>